<svg width="256" height="256" xmlns="http://www.w3.org/2000/svg">
 <g>
  <title>background</title>
  <rect x="-1" y="-1" width="258" height="258" id="canvas_background" fill="none"/>
 </g>

 <g>
  <title>Layer 1</title>
  <g id="svg_1" stroke="null">
   <path id="path1" transform="translate(58,58.964683532714844) scale(4.375) " fill="#009CDE" d="m15.560717,8.102472l11.02104,8.680272l0,11.249508c0,0.442934 -0.301,0.708178 -0.60201,0.79659c-0.29999,0.177699 -0.601,0.177699 -0.901,0.177699l-5.91102,0c-0.201,0 -0.401,-0.088403 -0.501,-0.177699c-0.1,-0.088412 -0.201,-0.265235 -0.201,-0.442943l0,-5.40284l-5.91102,0l0,5.40284c0,0.177708 -0.1,0.354531 -0.20001,0.442943c-0.1,0.089296 -0.30099,0.177699 -0.501,0.177699l-5.91102,0c-0.3,0 -0.601,-0.088403 -0.902,-0.177699c-0.2,-0.088412 -0.501,-0.353656 -0.501,-0.79659l0,-11.161105l11.02104,-8.768675zm0,-6.997788c0.501,0 1.002,0.176823 1.403,0.442934l13.92605,11.071818c0.80101,0.709062 0.90101,1.771771 0.1,2.569236c-0.802,0.708187 -2.104,0.79659 -2.90601,0.088412l-12.52304,-9.920688l-12.52304,9.832277c-0.40101,0.353656 -0.90201,0.442943 -1.40301,0.442943c-0.60101,0 -1.10201,-0.177708 -1.50301,-0.620641c-0.801,-0.619766 -0.801,-1.770896 0.1,-2.391537l13.92605,-11.071818c0.401,-0.26611 0.902,-0.442934 1.40301,-0.442934l0,-0.000002z" stroke="null"/>
  </g>
 </g>
</svg>