<svg width="256" height="256" xmlns="http://www.w3.org/2000/svg">
 <!-- Created with Method Draw - http://github.com/duopixel/Method-Draw/ -->

 <g>
  <title>background</title>
  <rect x="-1" y="-1" width="258" height="258" id="canvas_background" fill="none"/>
 </g>
 <g>
  <title>Layer 1</title>
  <g stroke="null" id="svg_1">
   <ellipse stroke="null" id="svg_2" fill="#009CDE" rx="18.5" ry="18.5" cx="62.5" cy="128"/>
   <path stroke="null" d="m63.214579,156.868744l15.493755,0l0,3.006257l-15.493755,0l0,-3.006257zm7.785421,-8.479167c-5.472921,0 -9.943745,4.470836 -9.943745,9.943757c0,5.47291 4.470824,9.943745 9.943745,9.943745c5.472921,0 9.943745,-4.470836 9.943745,-9.943745c0,-5.472921 -4.470824,-9.943757 -9.943745,-9.943757zm0,-2.389576c6.783324,0 12.333333,5.549998 12.333333,12.333333c0,6.783336 -5.550009,12.333333 -12.333333,12.333333c-6.783347,0 -12.333333,-5.549998 -12.333333,-12.333333c0,-6.783336 5.549986,-12.333333 12.333333,-12.333333z" fill="#009CDE" transform="translate(12,12) scale(0.75) " id="path1"/>
  </g>
  <g stroke="null" id="svg_5">
   <ellipse stroke="null" id="svg_3" fill="#009CDE" rx="18.5" ry="18.5" cx="132.5" cy="128"/>
   <path stroke="null" d="m156.547913,156.868744l15.493754,0l0,3.006257l-15.493754,0l0,-3.006257zm7.785421,-8.479166c-5.472921,0 -9.943746,4.470835 -9.943746,9.943757c0,5.472909 4.470825,9.943745 9.943746,9.943745c5.472921,0 9.943745,-4.470836 9.943745,-9.943745c0,-5.472922 -4.470824,-9.943757 -9.943745,-9.943757zm0,-2.389577c6.783324,0 12.333333,5.549998 12.333333,12.333334c0,6.783335 -5.550009,12.333333 -12.333333,12.333333c-6.783347,0 -12.333334,-5.549998 -12.333334,-12.333333c0,-6.783336 5.549987,-12.333334 12.333334,-12.333334z" fill="#009CDE" transform="translate(12,12) scale(0.75) " id="svg_4"/>
  </g>
  <g stroke="null" id="svg_8">
   <ellipse stroke="null" id="svg_6" fill="#009CDE" rx="18.5" ry="18.5" cx="203.5" cy="128"/>
   <path stroke="null" d="m251.214579,156.868744l15.493754,0l0,3.006257l-15.493754,0l0,-3.006257zm7.785421,-8.479166c-5.472921,0 -9.943746,4.470835 -9.943746,9.943757c0,5.472909 4.470825,9.943745 9.943746,9.943745c5.472921,0 9.943745,-4.470836 9.943745,-9.943745c0,-5.472922 -4.470824,-9.943757 -9.943745,-9.943757zm0,-2.389577c6.783324,0 12.333333,5.549998 12.333333,12.333334c0,6.783335 -5.550009,12.333333 -12.333333,12.333333c-6.783347,0 -12.333334,-5.549998 -12.333334,-12.333333c0,-6.783336 5.549987,-12.333334 12.333334,-12.333334z" fill="#009CDE" transform="translate(12,12) scale(0.75) " id="svg_7"/>
  </g>
 </g>
</svg>