<svg width="256" height="256" xmlns="http://www.w3.org/2000/svg">

 <g>
  <title>background</title>
  <rect fill="none" id="canvas_background" height="258" width="258" y="-1" x="-1"/>
 </g>
 <g>
  <title>Layer 1</title>
  <g id="svg_1">
   <path d="m9.142857,12.109789c3.527,2.617004 9.254997,4.263977 16,4.263977c6.744995,0 12.473007,-1.646973 16,-4.263977l0,3.86499c-2.244003,3.072998 -8.550995,5.289002 -16,5.289002c-7.447998,0 -13.755997,-2.216004 -16,-5.289002l0,-3.86499zm0,-8.363008c3.676003,2.894989 9.847,4.398986 16,4.398986c6.153,0 12.324005,-1.503997 16,-4.398986l0,4.479003c-2.244003,3.07001 -8.550995,5.289004 -16,5.289004c-7.447998,0 -13.755997,-2.218994 -16,-5.289004l0,-4.479003zm16,-13.964998c7.449005,0 13.755997,2.218994 16,5.290985l0,4.921998c-2.244003,3.072998 -8.550995,5.290009 -16,5.290009c-7.447998,0 -13.755997,-2.217011 -16,-5.290009l0,-4.921998c2.244003,-3.071991 8.552002,-5.290985 16,-5.290985z" fill="#009CDE" transform="translate(58,59.13312911987305) scale(4.375) " id="path1"/>
  </g>
  <g stroke="null" id="svg_3">
   <path stroke="null" d="m-5.153959,26.190594c2.871986,2.255995 7.536212,3.675773 13.028572,3.675773c5.492353,0 10.156592,-1.419777 13.028572,-3.675773l0,3.331825c-1.82726,2.649086 -6.962953,4.559398 -13.028572,4.559398c-6.064798,0 -11.201312,-1.910312 -13.028572,-4.559398l0,-3.331825zm0,-7.209353c2.993317,2.495633 8.018272,3.792158 13.028572,3.792158c5.0103,0 10.035261,-1.296525 13.028572,-3.792158l0,3.861136c-1.82726,2.64651 -6.962953,4.5594 -13.028572,4.5594c-6.064798,0 -11.201312,-1.91289 -13.028572,-4.5594l0,-3.861136zm13.028572,-12.038564c6.065618,0 11.201312,1.91289 13.028572,4.561108l0,4.243021c-1.82726,2.649086 -6.962953,4.560266 -13.028572,4.560266c-6.064798,0 -11.201312,-1.91118 -13.028572,-4.560266l0,-4.243021c1.82726,-2.648218 6.963773,-4.561108 13.028572,-4.561108z" fill="#009CDE" transform="translate(58,59.13312911987305) scale(4.375) " id="svg_2"/>
  </g>
 </g>
</svg>