<svg width="256" height="256" xmlns="http://www.w3.org/2000/svg">
 <!-- Created with Method Draw - http://github.com/duopixel/Method-Draw/ -->

 <g>
  <title>background</title>
  <rect fill="none" id="canvas_background" height="258" width="258" y="-1" x="-1"/>
 </g>
 <g>
  <title>Layer 1</title>
  <g id="svg_1" stroke="null">
   <path id="path1" transform="translate(58,58) scale(4.375) " fill="#009CDE" d="m25.942883,21.91533c-1.695661,0 -3.075232,1.378473 -3.075232,3.07311c0,1.695153 1.379571,3.07311 3.075232,3.07311c1.695653,0 3.075225,-1.377957 3.075225,-3.07311c0,-1.694636 -1.379572,-3.07311 -3.075225,-3.07311zm0,-1.057148c2.278666,0 4.132368,1.852654 4.132368,4.130257c0,2.277603 -1.853702,4.130257 -4.132368,4.130257c-2.278674,0 -4.132375,-1.852654 -4.132375,-4.130257c0,-2.277603 1.853702,-4.130257 4.132375,-4.130257zm-0.543373,-3.265529l0,0.565571c0,0.608385 -0.245786,1.182414 -0.691371,1.616371c-0.440829,0.423386 -1.012214,0.654372 -1.612671,0.654371c-0.632171,0.000001 -1.219414,-0.258471 -1.6539,-0.727842l-0.319257,-0.318729l-0.809771,0.806072l0.312386,0.308686c0.464614,0.424442 0.7289,1.016971 0.7289,1.654428c0,0.599929 -0.233629,1.170257 -0.6586,1.606857c-0.426029,0.437129 -1.000586,0.677629 -1.617957,0.677629l-0.570329,0l0,1.108414l0.575086,0c0.617371,0 1.191929,0.241028 1.617429,0.677628c0.431314,0.442414 0.659129,0.996357 0.659129,1.602629c0,0.634814 -0.263757,1.227871 -0.742114,1.670814l-0.294943,0.2923l0.814529,0.8103l0.3293,-0.329299c0.413343,-0.447171 1.015914,-0.712515 1.6391,-0.712515c0.600457,0 1.171843,0.230986 1.6095,0.6512c0.446114,0.433958 0.689786,1.007986 0.689786,1.619543l0,0.565571l1.105243,0l0,-0.565571c0,-0.6142 0.242086,-1.188757 0.682385,-1.6169c0.440829,-0.422858 1.010629,-0.653843 1.607386,-0.653843c0.626357,0 1.218357,0.259529 1.667114,0.731543l0.311329,0.310271l0.816113,-0.812414l-0.328243,-0.324543c-0.4588,-0.418628 -0.719914,-1.007985 -0.719914,-1.645442c0,-0.608386 0.234157,-1.184 0.659128,-1.6206c0.439772,-0.451401 1.013801,-0.699829 1.617429,-0.699829l0.485229,0l0,-1.059257l-0.494214,0c-0.616843,0 -1.191401,-0.2405 -1.6169,-0.677101c-0.431314,-0.442942 -0.659658,-0.997414 -0.659658,-1.602628c0,-0.632172 0.260586,-1.221001 0.7326,-1.658129l0.311329,-0.3071l-0.814529,-0.8066l-0.322429,0.322429c-0.432899,0.461442 -1.027014,0.722029 -1.662357,0.722028c-0.605743,0.000001 -1.180299,-0.230986 -1.617957,-0.6512c-0.454571,-0.442414 -0.703528,-1.016443 -0.703528,-1.619542l0,-0.565571l-1.059786,0l-0.000002,0zm-0.145886,-1.057143l1.373757,0c0.490514,0 0.889057,0.420743 0.889057,0.938215l0,0.6845c0,0.315028 0.135314,0.620542 0.380571,0.858928c0.481001,0.461443 1.308215,0.464614 1.787101,-0.045457l0.421271,-0.4218c0.367886,-0.344629 0.968871,-0.327714 1.301871,-0.017971l1.015914,1.0064c0.174958,0.175486 0.273801,0.411757 0.273801,0.650671c0,0.242086 -0.097257,0.478357 -0.267458,0.648029l-0.430258,0.425501c-0.26587,0.246314 -0.405943,0.559228 -0.405943,0.893814c0,0.324542 0.124215,0.623185 0.359429,0.865271c0.224642,0.230457 0.530685,0.357315 0.859986,0.357315l0.685028,0c0.4884,0 0.853114,0.387442 0.865801,0.920771l0.000528,1.368471c0,0.512186 -0.360486,0.884299 -0.857343,0.884299l-0.685029,0c-0.315556,0 -0.621071,0.134786 -0.859985,0.380043c-0.231514,0.238386 -0.359429,0.551829 -0.359429,0.883243c0,0.341457 0.135314,0.645914 0.391142,0.879014l0.442944,0.438185c0.358371,0.368414 0.355728,0.949315 0.002114,1.302929l-1.005343,1.000586c-0.370001,0.347799 -0.986843,0.326128 -1.314029,-0.001058l-0.409643,-0.409114c-0.509014,-0.533857 -1.291828,-0.527514 -1.783399,-0.0555c-0.234686,0.227814 -0.359957,0.524871 -0.359957,0.856286l0,0.6845c0,0.508486 -0.4255,0.938214 -0.929229,0.938214l-1.369529,0c-0.4995,0 -0.920771,-0.429729 -0.920771,-0.938214l0,-0.6845c0,-0.323486 -0.130557,-0.628472 -0.367357,-0.859458c-0.4773,-0.458271 -1.298171,-0.457214 -1.752214,0.034357l-0.433957,0.433429c-0.380571,0.358371 -1.015914,0.320843 -1.318786,-0.004757l-0.999,-0.993715c-0.353086,-0.353085 -0.355729,-0.931871 -0.006871,-1.292357l0.417571,-0.412814c0.272214,-0.252129 0.415457,-0.570328 0.415457,-0.907028c0,-0.324543 -0.124214,-0.623715 -0.359429,-0.864743c-0.224643,-0.230985 -0.530157,-0.358371 -0.859986,-0.358371l-0.689257,0c-0.511129,0 -0.942971,-0.423386 -0.942971,-0.924472l0,-1.373228c0,-0.501086 0.431843,-0.925 0.942971,-0.925l0.6845,0c0.334586,0 0.632171,-0.123686 0.860514,-0.357843c0.234686,-0.241557 0.3589,-0.541786 0.3589,-0.8695c0,-0.337228 -0.142186,-0.652257 -0.400129,-0.888529l-0.4292,-0.423386c-0.174957,-0.174957 -0.2701,-0.405414 -0.2701,-0.650671c0,-0.245786 0.095143,-0.476243 0.267986,-0.648557l1.001114,-0.996357c0.380571,-0.356786 1.015914,-0.318729 1.317729,0.005814l0.419686,0.418629c0.488929,0.528043 1.279671,0.516414 1.769129,0.045986c0.241029,-0.233629 0.369471,-0.530686 0.369471,-0.856286l0,-0.6845c0,-0.508486 0.417043,-0.938215 0.911257,-0.938215l0.000002,0.000001z" stroke="null"/>
  </g>
  <g id="svg_2">
   <path stroke="null" d="m16,2.005c-3.584,0 -6.5,3.023999 -6.5,6.740998c0,3.716999 2.916,6.741998 6.5,6.741999c3.584,-0.000001 6.5,-3.025 6.5,-6.741999c0,-3.716999 -2.916,-6.740998 -6.5,-6.740998zm0,-2.005c4.687,0 8.5,3.923999 8.5,8.745998c0,3.014374 -1.489452,5.677186 -3.75083,7.250399l-0.255438,0.168647l0.258782,0.079509c6.5089,2.090895 11.247486,8.359174 11.247486,15.746463l-2,0.008973c0,-7.995979 -6.280029,-14.494 -14,-14.494c-7.719971,0 -14,6.498021 -14,14.485027l-2,0.008973l0,-0.008973c0,-7.387289 4.738587,-13.655568 11.247486,-15.746463l0.258781,-0.079509l-0.255437,-0.168647c-2.261377,-1.573213 -3.75083,-4.236025 -3.75083,-7.250399c0,-4.821999 3.813,-8.745998 8.5,-8.745998z" fill="#009CDE" transform="rotate(0,128,128) translate(58,58.0000250339508) scale(4.375,4.375)  " id="path1"/>
  </g>
 </g>
</svg>