<svg width="256" height="256" xmlns="http://www.w3.org/2000/svg">
 <!-- Created with Method Draw - http://github.com/duopixel/Method-Draw/ -->

 <g>
  <title>background</title>
  <rect fill="none" id="canvas_background" height="258" width="258" y="-1" x="-1"/>
 </g>
 <g>
  <title>Layer 1</title>
  <g id="svg_1">
   <path d="m7.6,20l7,0c0.553,0 1,0.448 1,1c0,0.552 -0.447,1 -1,1l-7,0c-0.553,0 -1,-0.448 -1,-1c0,-0.552 0.447,-1 1,-1zm0,-4l9,0c0.553,0 1,0.448 1,1c0,0.552 -0.447,1 -1,1l-9,0c-0.553,0 -1,-0.448 -1,-1c0,-0.552 0.447,-1 1,-1zm18,-0.00003l0,2c-3.30896,0 -6,2.69104 -6,6c0,3.30902 2.69104,6 6,6c3.30896,0 6,-2.69098 6,-6l2,0c0,4.41101 -3.58899,8 -8,8c-4.41101,0 -8,-3.58899 -8,-8c0,-4.41095 3.58899,-8 8,-8zm0,-1.99997l5,3.208l-5,2.792l0,-6zm-18,-2l12,0c0.553,0 1,0.448 1,1c0,0.552 -0.447,1 -1,1l-12,0c-0.553,0 -1,-0.448 -1,-1c0,-0.552 0.447,-1 1,-1zm11,-8.586l0,3.61799l3.61799,0l-3.61799,-3.61799zm-15,-3.414l14.414,0l7.586,7.586l0,6.414l-2,0l0,-4.96801l-7,0l0,-7.03199l-13,0l0,28l15,0l0,2l-15,0c-1.103,0 -2,-0.897 -2,-2l0,-28c0,-1.103 0.897,-2 2,-2z" fill="#009CDE" transform="translate(58.00000762939453,58) scale(4.375) " id="path1"/>
  </g>
  <g stroke="null" id="svg_2">
   <path stroke="null" d="m25.052071,20.004094l0.971429,0l0,4.090514l2.465486,2.320453l-0.6868,0.646405l-2.750114,-2.588338l0,-4.469033zm0.538691,-2.839301c-3.749714,0 -6.8,2.870857 -6.8,6.4c0,3.529143 3.050286,6.4 6.8,6.4c3.749714,0 6.8,-2.870857 6.8,-6.4c0,-3.529143 -3.050286,-6.4 -6.8,-6.4zm0,-0.914286c4.284971,0 7.771428,3.281371 7.771428,7.314286c0,4.032914 -3.486457,7.314286 -7.771428,7.314286c-4.284971,0 -7.771428,-3.281371 -7.771428,-7.314286c0,-4.032914 3.486457,-7.314286 7.771428,-7.314286z" fill="#009CDE" transform="translate(58,58) scale(4.375) " id="path1"/>
  </g>
 </g>
</svg>