<?xml version="1.0" encoding="utf-8"?>
<svg xmlns="http://www.w3.org/2000/svg" height="256" width="256" viewBox="0 0 256 256">
  <g>
    <path id="path1" transform="rotate(0,128,128) translate(71.5624974966049,58) scale(4.375,4.375)  " fill="#009CDE" d="M0,16.299988L2.8000031,16.299988C3.1999967,20.5 7.4999993,23.799988 12.899993,23.799988 18.300001,23.799988 22.600004,20.5 22.999998,16.299988L25.800001,16.299988C25.800001,21.599976,20.899992,25.899963,14.600005,26.5L14.600005,29.399963 18.999998,29.399963 18.999998,32 6.9999993,32 6.9999993,29.399963 11.399993,29.399963 11.399993,26.5C4.8999937,25.899963,2.2346376E-07,21.599976,0,16.299988z M12.899993,0C16.199995,0,18.800001,2.0999756,18.800001,4.7999878L18.800001,15.299988C18.800001,17.899963 16.100004,20.099976 12.899993,20.099976 9.6999958,20.099976 6.9999993,18 6.9999993,15.299988L6.9999993,4.7999878C6.8999932,2.0999756,9.6000049,0,12.899993,0z" />
  </g>
</svg>

