<?xml version="1.0" encoding="utf-8"?>
<svg xmlns="http://www.w3.org/2000/svg" height="256" width="256" viewBox="0 0 256 256">
  <g>
    <path id="path1" transform="rotate(0,128,128) translate(1,10.2511613368988) scale(7.9375,7.9375)  " fill="#C00000" d="M21.914978,18.709999C21.914978,18.709999,31.121033,20.901001,32,29.668999L0,29.668999C0,29.668999,2.6290283,20.021996,10.518005,19.143997L12.65802,28.294998 14.22998,28.284996 16.012024,23.601997 14.348022,20.707001 17.677002,20.707001 16.078979,23.672997 18.116028,28.253998 19.34198,28.243996z M15.778015,0C20.653992,0 24.612,3.9519958 24.612,8.8330002 24.612,13.709 20.653992,17.666 15.778015,17.666 10.897034,17.666 6.9440308,13.709 6.9440308,8.8330002 6.9440308,3.9519958 10.897034,0 15.778015,0z" />
  </g>
</svg>

