<?xml version="1.0" encoding="utf-8"?>
<svg xmlns="http://www.w3.org/2000/svg" height="256" width="256" viewBox="0 0 256 256">
  <g>
    <path id="path1" transform="rotate(0,128,128) translate(0,31.8880234184676) scale(7.99999809137785,7.99999809137785)  " fill="#FFFFFF" d="M18.017485,17.846973L18.017485,20.040025 20.310514,20.040025 20.310514,17.846973z M14.528425,17.846973L14.528425,20.040025 16.821455,20.040025 16.821455,17.846973z M11.138365,17.846973L11.138365,20.040025 13.431426,20.040025 13.431426,17.846973z M18.017485,14.955984L18.017485,17.148975 20.310514,17.148975 20.310514,14.955984z M14.528425,14.955984L14.528425,17.148975 16.821455,17.148975 16.821455,14.955984z M11.138365,14.955984L11.138365,17.148975 13.431426,17.148975 13.431426,14.955984z M18.017485,11.864982L18.017485,14.057974 20.310514,14.057974 20.310514,11.864982z M14.627425,11.864982L14.627425,14.057974 16.920456,14.057974 16.920456,11.864982z M11.138365,11.864982L11.138365,14.057974 13.431426,14.057974 13.431426,11.864982z M9.543373,7.5770215L12.434403,7.5770215 12.434403,9.5710081 19.4135,9.5710081 19.4135,7.5770215 22.304529,7.5770215 22.304529,10.967034 22.404537,10.967034C22.404537,10.967034,24.49856,16.351003,28.785604,19.043018L29.583618,23.131027 28.287611,23.131027 28.287611,24.027999 3.6602684,24.027999 3.6602684,23.131027 2.3642613,23.131027C2.3642613,23.131027 3.0622686,19.342029 3.1622757,18.843982 3.1622759,18.843982 7.9473437,15.653005 9.4433659,10.868035L9.543373,10.868035z M15.42544,0C19.214493,1.9441359E-08 23.800552,0.59802209 28.88561,2.3930036 28.88561,2.3930039 30.979633,3.0910014 31.676664,5.2840237 31.676664,5.2840237 32.574655,8.4750008 31.377649,10.269037 31.377649,10.269037 25.595558,9.9700255 24.598566,9.4720091 24.598566,9.4720091 23.800552,4.9850125 20.310514,4.387021 20.310514,4.387021 9.7423505,3.0910014 8.6453513,6.1820029 8.6453513,6.1820029 8.2463282,9.1729979 7.7483357,9.372003 7.7483357,9.372003 3.1622759,10.269037 0.96824623,10.170038 0.96824647,10.170038 -0.82578384,8.1760201 0.47022352,5.1850247 0.47022343,5.1850247 0.96824647,3.4900185 2.8632611,2.4930097 2.8632609,2.49301 7.5493277,1.9441359E-08 15.42544,0z" />
  </g>
</svg>

