<?xml version="1.0" encoding="utf-8"?>
<svg xmlns="http://www.w3.org/2000/svg" height="256" width="256" viewBox="0 0 256 256">
  <g>
    <path id="path1" transform="rotate(0,128,128) translate(1,2.98043870925903) scale(7.9375,7.9375)  " fill="#C00000" d="M27,24.500991C26.448,24.500991 26,24.94999 26,25.500991 26,26.051991 26.448,26.500991 27,26.500991 27.552,26.500991 28,26.051991 28,25.500991 28,24.94999 27.552,24.500991 27,24.500991z M27,22.500991C28.653999,22.500991 30,23.846992 30,25.500991 30,27.15499 28.653999,28.500991 27,28.500991 25.346001,28.500991 24,27.15499 24,25.500991 24,23.846992 25.346001,22.500991 27,22.500991z M27,18.000991C27.827999,18.000991 28.5,18.672991 28.5,19.500991 28.5,20.328991 27.827999,21.000991 27,21.000991 26.172001,21.000991 25.5,20.328991 25.5,19.500991 25.5,18.672991 26.172001,18.000991 27,18.000991z M27,14.000991C27.827999,14.000991 28.5,14.672991 28.5,15.500991 28.5,16.328991 27.827999,17.000991 27,17.000991 26.172001,17.000991 25.5,16.328991 25.5,15.500991 25.5,14.672991 26.172001,14.000991 27,14.000991z M5,12.500991L5,26.500991 21,26.500991 21,12.500991z M5,10.50099L21,10.50099C22.104,10.500991,23,11.395991,23,12.500991L23,26.500991C23,27.60599,22.104,28.500991,21,28.500991L5,28.500991C3.8959999,28.500991,3,27.60599,3,26.500991L3,12.500991C3,11.395991,3.8959999,10.500991,5,10.50099z M2,9.5009904L2,29.500991 30,29.500991 30,25.500991 30,9.5009904z M1.4991899,0C1.754926,4.7683716E-07,2.0106621,0.097747803,2.2061515,0.29324245L8.4990511,6.5863015 14.791848,0.29423857C15.182827,-0.096750736 15.814793,-0.096750736 16.205772,0.29423857 16.59675,0.68522739 16.59675,1.3182096 16.205772,1.708199L15.814527,2.0993986 15.796468,2.119379 10.413492,7.5009904 31,7.5009904C31.552002,7.5009909,32,7.9489889,32,8.5009904L32,30.500991C32,31.052993,31.552002,31.500991,31,31.500991L1,31.500991C0.44799805,31.500991,0,31.052993,0,30.500991L0,8.5009904C0,7.9489889,0.44799805,7.5009909,1,7.5009904L6.5858703,7.5009904 0.79222822,1.707201C0.40124944,1.3162122 0.40124944,0.68423033 0.79222822,0.29324245 0.98771763,0.097747803 1.2434537,4.7683716E-07 1.4991899,0z" />
  </g>
</svg>

