<?xml version="1.0" encoding="utf-8"?>
<svg xmlns="http://www.w3.org/2000/svg" height="256" width="256" viewBox="0 0 256 256">
  <g>
    <path id="path1" transform="rotate(0,128,128) translate(35.6639904575113,0) scale(8.00000095367625,8.00000095367625)  " fill="#262626" d="M11.127998,25.504937C10.335029,25.504937 9.6929997,26.147946 9.6929997,26.939959 9.6929997,27.733958 10.335029,28.37596 11.127998,28.37596 11.921029,28.37596 12.564034,27.733958 12.564034,26.939959 12.564034,26.147946 11.921029,25.504937 11.127998,25.504937z M18.952041,23.933924C18.249036,23.933924 17.679028,24.504929 17.679028,25.206944 17.679028,25.909953 18.249036,26.480958 18.952041,26.480958 19.655043,26.480958 20.226027,25.909953 20.226027,25.206944 20.226027,24.504929 19.655043,23.933924 18.952041,23.933924z M2.9760152,22.498917C2.4370133,22.498917 2.0000013,22.935916 2.0000013,23.473929 2.0000013,24.011929 2.4370133,24.448928 2.9760152,24.448928 3.5150169,24.448928 3.9509915,24.011929 3.9509918,23.473929 3.9509915,22.935916 3.5150169,22.498917 2.9760152,22.498917z M3.0640279,19.379889C3.7540308,19.389899 4.4359769,19.628899 5.0809969,20.216901 6.0059856,21.059911 6.5499925,21.695916 7.8330134,21.90092 8.6610164,22.033917 9.4810246,21.724908 10.163032,21.281913 10.559029,21.023915 10.869026,20.634904 11.187019,20.291899 12.036996,19.3749 12.607003,20.560899 13.018991,20.987904 14.482005,22.504914 16.755994,21.159917 18.031018,20.157895 19.732009,18.819888 20.623,20.187909 21.952042,20.930911 22.270036,21.107915 22.606034,21.219914 22.952042,21.286918L23.084,21.309912 23.084,26.043942 23.078996,26.211942 23.080033,26.217953C23.082047,26.266951 23.084,26.314956 23.084,26.363952 23.084,26.995961 22.871049,27.603967 22.477006,28.171964L22.439042,28.224957 22.398026,28.287963C22.110001,28.715974,21.741044,29.083974,21.31404,29.372977L21.244033,29.417975 21.11299,29.514977C19.039016,31.014989 15.526012,31.999997 11.542001,31.999997 7.5579885,31.999997 4.0449857,31.014989 1.9710095,29.514977L1.8380139,29.416968 1.7700207,29.372977C1.3430183,29.083974,0.97399951,28.715974,0.68499799,28.287963L0.64501996,28.225964 0.6060185,28.171964C0.21301266,27.603967 -1.8329774E-07,26.995961 2.5465852E-11,26.363952 -1.8329774E-07,26.314956 0.00097637989,26.266951 0.0029907223,26.217953L0.00402832,26.211942 2.5465852E-11,26.043942 2.5465852E-11,20.469909 0.30700682,20.282897C1.1489874,19.791896 2.0419935,19.40589 2.926027,19.380896 2.9719869,19.379889 3.018984,19.378897 3.0640279,19.379889z M14.801036,5.9207872L16.049022,5.9817923 15.92799,12.493851 19.069045,12.493851C21.287002,12.493851,23.084,14.291854,23.084,16.507874L23.084,19.759898 23.080033,19.757899C21.821,19.090901 20.720046,17.995892 19.04103,18.485886 17.835034,18.836886 15.41804,20.840915 14.557017,19.946894 13.810007,19.172887 13.520029,18.705888 12.353036,18.703889 11.289986,18.70189 10.364998,19.225896 9.6229924,19.940898 8.8729924,20.662904 8.6240291,21.058904 7.5889944,20.164899 7.0349778,19.685891 6.5830125,19.156895 5.9790081,18.73189 4.2919949,17.542886 2.0980238,18.135892 0.16497801,19.108891L2.5465852E-11,19.193898 2.5465852E-11,16.507874C-1.8329774E-07,14.291854,1.7969982,12.493851,4.0150174,12.493851L6.5709885,12.493851 6.6890305,6.2167948 7.9390315,6.1837895 8.3179988,12.493851 14.156993,12.493851z M15.651989,0.18475102C15.775036,0.18775701 15.906994,0.2437572 15.97102,0.33575293 16.219006,1.1237535 16.296033,1.9167588 16.418042,2.7207659 16.44801,2.9297672 16.46803,3.1197711 16.474011,3.2927762 16.577039,4.0107844 15.978039,5.0477794 15.172007,4.6147774 13.676035,3.8007758 15.104991,1.9477649 15.208018,0.70475906 15.266002,0.56475877 15.331004,0.42774909 15.403026,0.29374548 15.444042,0.22875769 15.51704,0.1947456 15.599987,0.18674992 15.617016,0.18475102 15.634045,0.18374392 15.651989,0.18475102z M7.3159841,0.00074386732C7.3350271,-0.00024795577 7.354009,-0.00024795577 7.372991,0.00074386732 7.5070242,0.0077477107 7.6480154,0.07174356 7.715032,0.17175053 7.9600276,1.0327495 8.0230159,1.8927566 8.1320247,2.7667716 8.1590022,2.9927712 8.1749934,3.1997734 8.1779841,3.3857794 8.268011,4.1657842 7.5919851,5.2717956 6.7319993,4.7797874 5.1340369,3.858775 6.7319993,1.8927566 6.879033,0.55175823 6.9440354,0.40075609 7.0189866,0.2547436 7.1010178,0.11074542 7.1470388,0.041744553 7.2269949,0.0077477107 7.3159841,0.00074386732z" />
  </g>
</svg>