<?xml version="1.0" encoding="utf-8"?>
<svg xmlns="http://www.w3.org/2000/svg" height="256" width="256" viewBox="0 0 256 256">
  <g>
    <path id="path1" transform="rotate(0,128,128) translate(0,1.76399229321981) scale(8.00000000103619,8.00000000103619)  " fill="#262626" d="M16.017856,7.9149963L27.038898,17.733009 27.038898,30.457012C27.038898,30.958004 26.737896,31.258007 26.436891,31.358013 26.136896,31.559002 25.835892,31.559002 25.535887,31.559002L19.62487,31.559002C19.423866,31.559002 19.223869,31.459011 19.123869,31.358013 19.02387,31.258007 18.922865,31.05801 18.922865,30.857006L18.922865,24.746011 13.011848,24.746011 13.011848,30.857006C13.011848,31.05801 12.91185,31.258007 12.811843,31.358013 12.711844,31.459011 12.510847,31.559002 12.310841,31.559002L6.3998249,31.559002C6.0998209,31.559002 5.7988175,31.459011 5.4978211,31.358013 5.2978161,31.258007 4.9968203,30.958004 4.9968203,30.457012L4.9968203,17.833z M16.017856,0C16.518858,1.4456054E-07,17.019857,0.19999716,17.42086,0.50099231L31.346912,13.024007C32.147919,13.826009 32.247917,15.028005 31.446913,15.929998 30.644907,16.731008 29.342909,16.830999 28.540903,16.030004L16.017856,4.8089925 3.4948159,15.929998C3.0938135,16.330007 2.5928121,16.431005 2.0918112,16.431005 1.4908033,16.431005 0.989802,16.230001 0.58879947,15.729009 -0.21219814,15.028005 -0.21219814,13.726003 0.68879842,13.024007L14.614851,0.50099231C15.015853,0.19999716,15.516854,1.4456054E-07,16.017856,0z" />
  </g>
</svg>