<?xml version="1.0" encoding="utf-8"?>
<svg xmlns="http://www.w3.org/2000/svg" height="256" width="256" viewBox="0 0 256 256">
  <g>
    <path id="path1" transform="rotate(0,128,128) translate(1.27600845372484,0) scale(7.99999904633338,7.99999904633338)  " fill="#FFFFFF" d="M17.988996,18.008142L17.988996,29.901024 26.183995,29.901024 26.183995,18.008142z M5.4970037,18.008142L5.4970037,29.901024 13.692003,29.901024 13.692003,18.008142z M17.988996,10.313218L17.988996,15.909163 26.183995,15.909163 29.282993,15.909163 29.282993,10.313218z M2.299009,10.313218L2.299009,15.909163 4.5970413,15.909163 5.3970286,15.909163 13.592028,15.909163 13.592028,10.313218z M24.485999,1.6183033C23.386026,1.6183033 21.587016,2.3182933 19.988017,3.4172816 17.790021,5.0162649 16.490035,7.1152511 17.290023,7.9142394 17.389999,8.0142364 17.590011,8.1142416 17.88902,8.2142391L18.88902,8.2142391C19.988017,8.0142364 21.387004,7.4152436 22.68699,6.4152536 24.985023,4.8162699 26.183995,2.8172891 25.485023,2.018301 25.285011,1.7183008 24.884986,1.6183033 24.485999,1.6183033z M6.3959901,1.6183033C5.9970033,1.6183033 5.5970404,1.7183008 5.3970286,2.018301 4.6970169,2.8172891 5.9970033,4.8162699 8.1949999,6.4152536 9.4949858,7.4152436 10.894033,8.0142364 11.993031,8.2142391L12.991992,8.2142391C13.192004,8.2142391 13.392016,8.1142416 13.592028,7.9142394 14.292039,7.1152511 13.092029,5.1162701 10.894033,3.4172816 9.2950346,2.3182933 7.5960009,1.6183033 6.3959901,1.6183033z M25.439481,0.00051245612C26.200355,0.011895226 26.809316,0.21306549 27.183995,0.61931263 28.483005,2.0183008 26.884008,5.0162649 23.585977,7.4152436 23.186013,7.7142444 22.68699,8.0142364 22.287027,8.2142391L31.681001,8.2142391 31.681001,18.008142 29.382968,18.008142 28.58298,18.008142 28.58298,32.000002 3.0980193,32.000002 3.0980193,18.008142 0,18.008142 0,8.2142391 8.5950233,8.2142391C8.1949999,7.9142394 7.7960131,7.7142444 7.2960135,7.4152436 4.0980184,5.0162649 2.3990454,2.0183008 3.5980188,0.61931263 3.998043,0.21931486 4.5970413,0.019319863 5.3970286,0.019319869 7.0960013,0.019319863 9.4949858,0.9183055 11.692982,2.5182958 13.491991,3.8172793 14.791002,5.4162626 15.391037,6.7152533 15.991013,5.4162626 17.290023,3.8172793 19.089032,2.5182958 21.356387,0.86899816 23.765561,-0.024530115 25.439481,0.00051245612z" />
  </g>
</svg>

