<?xml version="1.0" encoding="utf-8"?>
<svg xmlns="http://www.w3.org/2000/svg" height="256" width="256" viewBox="0 0 256 256">
  <g>
    <path id="path1" transform="rotate(0,128,128) translate(12.1799774169922,0) scale(8,8)  " fill="#FFFFFF" d="M24.924996,11.23L24.947995,15.483001 27.086001,13.368001z M23.591992,8.062L28.955005,13.368001 23.650992,18.614002 23.625993,14.032001 17.169978,14.032001 17.169978,12.637001 23.617993,12.637001z M1.4129638,2.1409988L1.4129638,25.334007 12.008973,29.859001 12.008973,6.6670005z M0,0L0.19799804,0.084999087 20.31,0.084999087 20.31,5.3550002 18.896975,5.3550002 18.896975,1.498001 3.5059814,1.498001 13.421998,5.7319991 13.421998,24.929001 18.896975,24.929001 18.896975,21.173002 20.31,21.173002 20.31,26.342003 13.421998,26.342003 13.421998,32 0.17199707,26.342003 0,26.342003 0,26.268005 0,0.084999087z" />
  </g>
</svg>

