<svg width="256" height="256" xmlns="http://www.w3.org/2000/svg">
 <g>
  <title>background</title>
  <rect fill="none" id="canvas_background" height="258" width="258" y="-1" x="-1"/>
 </g>

 <g>
  <title>Layer 1</title>
  <g fill="none" id="svg_1">
   <path stroke-width="0" d="m16,0.050633c8.8,0 16,7.2 16,16c0,8.8 -7.2,16 -16,16c-8.8,0 -16,-7.2 -16,-16c0,-8.8 7.2,-16 16,-16z" fill="#FF285E" transform="translate(1.600000023841858,1.600000023841858) scale(7.900000095367432) " id="path1"/>
  </g>
  <text stroke="#000" transform="matrix(1.1895197629928589,0,0,1,-29.348912047222257,0) " xml:space="preserve" text-anchor="start" font-family="Helvetica, Arial, sans-serif" font-size="24" id="svg_2" y="120.5" x="33.5" stroke-width="0" fill="#000000"/>
  <text stroke="#000" transform="matrix(1.125259049153565,0,0,1.1508473051447694,-7.60268154623228,-11.003186094628298) " xml:space="preserve" text-anchor="start" font-family="Helvetica, Arial, sans-serif" font-size="45" id="svg_3" y="121.983711" x="39.074916" stroke-opacity="null" stroke-width="0" fill="#ffffff">BROAD</text>
  <path id="svg_4" d="m-211.615977,20.692117" opacity="0.5" stroke-opacity="null" stroke-width="0" stroke="#000" fill="#0C372C"/>
  <text stroke="#000" transform="matrix(1.125259049153565,0,0,1.1508473051447694,-7.60268154623228,-11.003186094628298) " xml:space="preserve" text-anchor="start" font-family="Helvetica, Arial, sans-serif" font-size="45" id="svg_5" y="164.561036" x="54.182548" stroke-opacity="null" stroke-width="0" fill="#ffffff">BAND</text>
 </g>
</svg>