<?xml version="1.0" encoding="utf-8"?>
<svg xmlns="http://www.w3.org/2000/svg" height="256" width="256" viewBox="0 0 256 256">
  <g>
    <path id="path1" transform="rotate(0,128,128) translate(0,24.0279488680149) scale(8.0000033378615,8.0000033378615)  " fill="#353535" d="M16.79575,22.894002C17.695761,22.894002 18.295729,23.593984 18.295729,24.394002 18.295729,25.192983 17.695761,25.993001 16.79575,25.993001 15.895768,25.993001 15.295786,25.292989 15.295786,24.494008 15.295786,23.69399 15.995773,22.894002 16.79575,22.894002z M16.59577,17.096002L16.995758,17.096002C18.69474,17.096002 20.294724,17.895011 21.294708,19.194999 21.394682,19.395011 21.494688,19.594993 21.494688,19.795005 21.494688,20.395011 21.0947,20.895011 20.394697,20.895011L20.294724,20.895011C19.894705,20.895011 19.594721,20.694999 19.394711,20.395011 18.794745,19.594993 17.795734,19.094993 16.695776,19.194999 15.595785,19.295005 14.5958,19.795005 14.096798,20.694999L13.996809,20.895011C13.7968,21.093986 13.496816,21.193992 13.196817,21.293998 12.896818,21.293998 12.59682,21.193992 12.396826,20.99401 12.196832,20.795005 12.096827,20.594993 12.096827,20.295005 12.096827,20.094993 12.196832,19.795005 12.296821,19.594993 13.196817,18.194999 14.795794,17.195001 16.59577,17.096002z M16.095778,8.4980125C16.395762,8.5980186 16.695776,8.5980186 16.895754,8.5980186 20.594706,8.5980186 24.093649,10.296992 26.092613,13.09701 26.292624,13.39599 26.492632,13.696009 26.492632,14.096003 26.492632,15.096002 25.793636,15.895989 24.593641,15.895989 23.993645,15.895989 23.393677,15.596002 22.993658,14.995995 21.494688,12.997003 18.994722,11.896998 16.295773,11.997004 13.596806,12.097011 11.096841,13.596003 9.897853,15.696008L9.7978641,15.796014C9.7978641,15.895989 9.6978589,15.995995 9.59787,15.995995 9.2978707,16.395989 8.7978784,16.596002 8.297885,16.596002 7.2978998,16.696008 6.3989106,15.895989 6.3989106,14.995995 6.3989106,14.596002 6.4989153,14.196009 6.6989094,13.89599 8.5978843,10.697017 12.196832,8.6979942 16.095778,8.4980125z M15.49578,0L16.395762,0C22.693676,-2.2080167E-07 28.392599,3.2990097 31.591559,8.2980003 31.791538,8.5980186 31.991547,8.8980064 31.991547,9.2980003 32.091551,10.296992 31.291544,11.097011 30.191586,11.197017 29.49259,11.197017 28.992598,10.796992 28.592579,10.197017 25.793636,5.9980134 20.994694,3.2990097 15.695774,3.5989975 10.297856,3.8990154 5.6989237,7.0980191 3.1989594,11.896998 2.8999678,12.296991 2.3999749,12.59701 1.8999822,12.59701 0.89999626,12.697016 0.10000467,11.896998 0,10.896998 0,10.497004 0.10000467,10.097011 0.29999865,9.7969932 3.1989594,4.2990093 8.7978784,0.39999351 15.49578,0z" />
  </g>
</svg>

