<?xml version="1.0" encoding="utf-8"?>
<svg xmlns="http://www.w3.org/2000/svg" height="256" width="256" viewBox="0 0 256 256">
  <g>
    <path id="path1" transform="rotate(0,128,128) translate(1.59999999999999,1.59999999999999) scale(7.9,7.9)  " fill="#FFFFFF" d="M14.580002,23.394012L14.580002,26.235001 17.18399,26.235001 17.18399,23.394012z M16.117996,5.7660065C14.539993,5.7660065 13.278992,6.2390137 12.332993,7.1880035 10.991989,8.5250092 10.320999,10.223007 10.320999,12.27301L13.043991,12.27301C13.043991,10.695007 13.437988,9.5130005 14.22699,8.7230072 14.697998,8.25 15.289001,8.0130005 16,8.0130005 16.867996,8.0130005 17.537003,8.25 18.009995,8.7230072 18.561996,9.2750092 18.838989,10.106003 18.838989,11.207001 18.838989,12.077011 18.522995,12.827011 17.89299,13.455002 16.789001,14.561005 16.039001,15.429001 15.644989,16.061005 15.090988,16.92601 14.817001,18.228012 14.817001,19.964005L16.947998,19.964005C16.947998,18.545013 17.302002,17.478012 18.009995,16.767014 18.955994,15.824005 19.705994,15.074005 20.259995,14.522003 21.205002,13.574005 21.679001,12.432007 21.679001,11.090012 21.679001,9.5130005 21.166,8.2109985 20.14299,7.1880035 19.194992,6.2390137 17.853989,5.7660065 16.117996,5.7660065z M16,0C24.819992,0 32,7.178009 32,16.001007 32,24.822006 24.819992,32 16,32 7.1759949,32 0,24.822006 0,16.001007 0,7.178009 7.1759949,0 16,0z" />
  </g>
</svg>

