<?xml version="1.0" encoding="utf-8"?>
<svg xmlns="http://www.w3.org/2000/svg" height="256" width="256" viewBox="0 0 256 256">
  <g>
    <path id="path1" transform="rotate(0,128,128) translate(0,64.9079479261946) scale(8.00001010823344,8.00001010823344)  " fill="#F14756" d="M24.832445,2.1981425C23.498496,2.2092559 22.271131,2.8049409 21.503881,3.4371722 21.22892,3.6881757 18.839907,6.2691321 17.303974,7.9331097 19.043946,9.899085 20.8549,11.922035 21.196877,12.204044 21.815889,12.704038 22.751914,13.458024 23.9499,13.694014 25.598869,14.019021 27.955839,13.422014 29.228836,11.347062 30.658813,9.0210762 29.72883,6.3991351 29.410841,5.6501531 29.001848,4.6931662 28.040859,2.9971762 26.188828,2.4021833 25.733587,2.2556858 25.277095,2.194438 24.832445,2.1981425z M7.1339953,2.0033228C6.699995,2.0033227 6.2549949,2.0653211 5.8109951,2.2083173 3.9599943,2.8043017 2.9979944,4.4992575 2.5899944,5.4572325 2.2709942,6.2052131 1.3409939,8.8261442 2.7719946,11.155084 4.0469947,13.23003 6.4029951,13.826014 8.0509953,13.500023 9.2459956,13.265029 10.182996,12.511048 10.802996,12.012061 11.072996,11.789067 12.339996,10.401103 14.574997,7.8781695 13.342996,6.5332045 12.185996,5.1932392 11.398996,4.2822633L11.312975,4.1826472 11.287988,4.1553373C11.209481,4.0698449,11.153368,4.0104327,11.123985,3.9821472L11.13214,3.973156 11.06484,3.8951642C10.760621,3.5427201 10.549496,3.2995388 10.460996,3.2132912 9.7149957,2.5983071 8.4799955,2.0033227 7.1339953,2.0033228z M7.1102452,9.3758106E-05C8.9762456,-0.0099372715 10.659996,0.78635447 11.769996,1.7013308 11.901246,1.8100777 12.063258,1.9917722 12.764424,2.8042304L12.7938,2.8382833 12.837037,2.8856044C13.21871,3.3045323 13.939498,4.1199722 15.335977,5.7041378 15.535987,5.9311242 15.749974,6.1741323 15.972933,6.4261122 19.266905,2.8601847 20.035939,2.0571871 20.230945,1.8961786 21.709872,0.67320432 24.215888,-0.33178611 26.80186,0.4972121 28.734823,1.1192123 30.314823,2.6701848 31.250788,4.866137 31.664783,5.8371315 32.864784,9.2510843 30.932796,12.394044 29.457838,14.796018 26.933816,15.772993 24.799867,15.772993 24.367865,15.772993 23.951853,15.732985 23.56288,15.656998 21.879914,15.326009 20.665938,14.345005 19.940909,13.760022 19.532909,13.430779 18.120322,11.870246 16.076458,9.5639782L15.914619,9.381257 15.776595,9.5369654C13.131835,12.518413 12.358153,13.326964 12.059996,13.568021 11.330996,14.154005 10.115996,15.13198 8.4379954,15.462972 8.0489955,15.538969 7.6309953,15.578968 7.1979952,15.578968 5.0649948,15.578968 2.5419941,14.603993 1.0659943,12.201056 -0.86500645,9.056139 0.33599377,5.6442275 0.74999428,4.673253 1.6869946,2.4783103 3.2659945,0.92635082 5.1979947,0.30436699 5.8459949,0.096372455 6.488245,0.003437385 7.1102452,9.3758106E-05z" />
  </g>
</svg>

