<?xml version="1.0" encoding="utf-8"?>
<svg xmlns="http://www.w3.org/2000/svg" height="256" width="256" viewBox="0 0 256 256">
  <g>
    <path id="path1" transform="rotate(0,128,128) translate(1.59999999999999,1.59999999999999) scale(7.9,7.9)  " fill="#009CDE" d="M5.8999939,14.099991L26,14.099991 26,18 5.8999939,18z M16,3.0999908C8.8999939,3.0999908 3.1000061,8.8999939 3.1000061,16 3.1000061,23.099991 8.8999939,28.899994 16,28.899994 23.100006,28.899994 28.899994,23.099991 28.899994,16 28.899994,8.8999939 23.100006,3.0999908 16,3.0999908z M16,0C24.799988,0 32,7.1999969 32,16 32,24.800003 24.799988,32 16,32 7.1999817,32 0,24.800003 0,16 0,7.1999969 7.1999817,0 16,0z" />
  </g>
</svg>

