<?xml version="1.0" encoding="utf-8"?>
<svg xmlns="http://www.w3.org/2000/svg" height="256" width="256" viewBox="0 0 256 256">
  <g>
    <ellipse cy="128" cx="128" ry="128" rx="128" fill="#009CDE" />
    <path id="path1" transform="rotate(0,128,128) translate(38.5749976634979,30) scale(6.125,6.125)  " fill="#FFFFFF" d="M9.6999674,17.900024L19.500033,17.900024C24.900004,17.900024 29.2,22 29.2,27.100006 29.2,28.900024 28.7,30.600006 27.699998,32L1.5000024,32C0.50000076,30.600006 -4.9178198E-08,28.900024 0,27.100006 -4.9178198E-08,22 4.299995,17.900024 9.6999674,17.900024z M14.699976,0C18.800019,0 22.100013,3.3000183 22.100013,7.4000244 22.100013,11.5 18.800019,14.800018 14.699976,14.800018 10.599993,14.800018 7.2999998,11.5 7.2999998,7.4000244 7.3999758,3.3000183 10.699969,0 14.699976,0z" />
  </g>
</svg>

