<?xml version="1.0" encoding="utf-8"?>
<svg xmlns="http://www.w3.org/2000/svg" height="256" width="256" viewBox="0 0 256 256">
  <g>
    <path id="path1" transform="rotate(0,128,128) translate(0,3.219970703125) scale(8,8)  " fill="#50B330" d="M16.707999,18.38001L21.230998,26.431009 28.433997,26.431009 25.864997,24.001009 27.208997,22.581009 31.748996,26.876009 27.183997,31.195007 25.839997,29.774007 27.307997,28.386009 20.087998,28.386009 15.002998,19.33901z M0,2.9710013L9.4859998,2.9710013 14.234999,11.563994 12.524,12.510993 8.3329999,4.9259997 0,4.9259997z M27.459,0L32.000001,4.2959925 27.434006,8.6149946 26.090012,7.1939732 28.488999,4.9259974 21.263009,4.9259974 9.513005,28.385999 2.3841858E-06,28.385999 2.3841858E-06,26.431013 8.3070037,26.431013 20.056006,2.9709793 27.753998,2.9709793 26.115006,1.4209909z" />
  </g>
</svg>

