<?xml version="1.0" encoding="utf-8"?>
<svg xmlns="http://www.w3.org/2000/svg" height="256" width="256" viewBox="0 0 256 256">
  <g>
    <path id="path1" transform="rotate(0,128,128) translate(25.2000045776367,0) scale(8,8)  " fill="#50B330" d="M11.500008,29.200012C11.299996,29.200012,11.100014,29.400024,11.100014,29.5L11.100014,30.300049C11.100014,30.5,11.299996,30.600037,11.500008,30.600037L14.299998,30.600037C14.50001,30.600037,14.699992,30.400024,14.699992,30.300049L14.699992,29.5C14.699992,29.300049,14.50001,29.200012,14.299998,29.200012z M6.6000106,29.200012C6.3999984,29.200012,6.1999857,29.400024,6.1999857,29.5L6.1999857,30.300049C6.1999857,30.5,6.3999984,30.600037,6.6000106,30.600037L9.4000008,30.600037C9.600013,30.600037,9.7999947,30.400024,9.7999947,30.300049L9.7999947,29.5C9.7999947,29.300049,9.600013,29.200012,9.4000008,29.200012z M1.8999948,29.200012C1.6999827,29.200012,1.5000009,29.400024,1.5000009,29.5L1.5000009,30.300049C1.5000009,30.5,1.6999827,30.600037,1.8999948,30.600037L4.6999848,30.600037C4.899997,30.600037,5.1000096,30.400024,5.1000096,30.300049L5.1000096,29.5C5.1000096,29.300049,4.899997,29.200012,4.6999848,29.200012z M11.500008,26.600037C11.299996,26.600037,11.100014,26.800049,11.100014,26.900024L11.100014,27.700012C11.100014,27.900024,11.299996,28,11.500008,28L14.299998,28C14.50001,28,14.699992,27.800049,14.699992,27.700012L14.699992,27C14.699992,26.800049,14.50001,26.700012,14.299998,26.700012L11.500008,26.700012z M6.6000106,26.600037C6.3999984,26.600037,6.1999857,26.800049,6.1999857,26.900024L6.1999857,27.700012C6.1999857,27.900024,6.3999984,28,6.6000106,28L9.4000008,28C9.600013,28,9.7999947,27.800049,9.7999947,27.700012L9.7999947,27C9.7999947,26.800049,9.600013,26.700012,9.4000008,26.700012L6.6000106,26.700012z M1.8999948,26.600037C1.6999827,26.600037,1.5000009,26.800049,1.5000009,26.900024L1.5000009,27.700012C1.5000009,27.900024,1.6999827,28,1.8999948,28L4.6999848,28C4.899997,28,5.1000096,27.800049,5.1000096,27.700012L5.1000096,27C5.1000096,26.800049,4.899997,26.700012,4.6999848,26.700012L1.8999948,26.700012z M11.500008,24C11.299996,24,11.100014,24.200012,11.100014,24.300049L11.100014,25.100037C11.100014,25.300049,11.299996,25.400024,11.500008,25.400024L14.299998,25.400024C14.50001,25.400024,14.699992,25.200012,14.699992,25.100037L14.699992,24.300049C14.699992,24.100037,14.50001,24,14.299998,24z M6.6000106,24C6.3999984,24,6.1999857,24.200012,6.1999857,24.300049L6.1999857,25.100037C6.1999857,25.300049,6.3999984,25.400024,6.6000106,25.400024L9.4000008,25.400024C9.600013,25.400024,9.7999947,25.200012,9.7999947,25.100037L9.7999947,24.300049C9.7999947,24.100037,9.600013,24,9.4000008,24z M1.8999948,24C1.6999827,24,1.5000009,24.200012,1.5000009,24.300049L1.5000009,25.100037C1.5000009,25.300049,1.6999827,25.400024,1.8999948,25.400024L4.6999848,25.400024C4.899997,25.400024,5.1000096,25.200012,5.1000096,25.100037L5.1000096,24.300049C5.1000096,24.100037,4.899997,24,4.6999848,24z M0,6.6000366L3.1999836,6.6000366 3.1999836,7.9000244 2.1000075,7.9000244C1.7999888,7.8000488,1.6999827,8,1.6999826,8.2000122L1.6999826,22.100037C1.6999827,22.300049,1.8999951,22.400024,2.1000075,22.400024L6.6000106,22.400024 6.6999862,22.400024 14.299998,22.400024C14.50001,22.400024,14.699992,22.200012,14.699992,22.100037L14.699992,17.600037 16.400006,16.600037 16.400006,32 0,32z M19.900007,5.9000244C19.199995,5.9000244 18.699995,6.4000244 18.699995,7 18.699995,7.6000366 19.300001,8.1000366 19.900007,8.1000366 20.600022,8.1000366 21.100022,7.6000366 21.100022,7 21.100022,6.4000244 20.600022,5.9000244 19.900007,5.9000244z M15.000011,5.9000244C14.299998,5.9000244 13.799998,6.4000244 13.799998,7 13.799998,7.6000366 14.400004,8.1000366 15.000011,8.1000366 15.699992,8.1000366 16.199993,7.6000366 16.199993,7 16.199993,6.4000244 15.699992,5.9000244 15.000011,5.9000244z M10.000007,5.9000244C9.2999947,5.9000244 8.7999937,6.4000244 8.7999937,7 8.7999937,7.6000366 9.4000008,8.1000366 10.000007,8.1000366 10.69999,8.1000366 11.19999,7.6000366 11.19999,7 11.299996,6.4000244 10.69999,5.9000244 10.000007,5.9000244z M9.9000008,0L20.300001,0C23.300005,0,25.699999,2.2000122,25.699999,5L25.699999,9.8000488C25.699999,12.5,23.300005,14.800049,20.300001,14.800049L16.600018,14.800049 8.6999876,19.700012 9.9000008,14.800049C6.8999984,14.800049,4.5000031,12.600037,4.5000031,9.8000488L4.5000031,5C4.6000092,2.2000122,7.000005,0,9.9000008,0z" />
  </g>
</svg>

