<?xml version="1.0" encoding="utf-8"?>
<svg xmlns="http://www.w3.org/2000/svg" height="256" width="256" viewBox="0 0 256 256">
  <g>
    <path id="path1" transform="rotate(0,128,128) translate(0,6.80001068115234) scale(8,8)  " fill="#000000" d="M10.5,22.299996C9.2000122,22.299996 8.2000122,23.100015 8.2000122,24.600015 8.2000122,26.100015 9.2000122,26.900004 10.5,26.900004 11.800018,26.900004 12.800018,26.100015 12.800018,24.600015 12.800018,23.100015 11.800018,22.299996 10.5,22.299996z M23.800018,0C28.300018,-3.4915502E-08,32,3.6999829,32,8.1999846L32,12.799993 29,12.799993 29,8.1999846C29,5.2999897 26.700012,3.000001 23.800018,3.000001 20.900024,3.000001 18.600006,5.2999897 18.600006,8.1999846L18.600006,12.399999 21.100006,12.399999 21.100006,30.299998 0,30.299998 0,12.399999 15.5,12.399999 15.5,8.1999846C15.5,3.6999829,19.200012,-3.4915502E-08,23.800018,0z" />
  </g>
</svg>

