<?xml version="1.0" encoding="utf-8"?>
<svg xmlns="http://www.w3.org/2000/svg" height="256" width="256" viewBox="0 0 256 256">
  <g>
    <path id="path1" transform="rotate(0,128,128) translate(13.6000061035156,0) scale(8,8)  " fill="#262626" d="M8.8000165,4.5L8.8000165,8.7999878C5.800017,10.600006 3.8000173,13.899994 3.8000173,17.699982 3.8000173,23.5 8.4999982,28.199982 14.300015,28.199982 20.100001,28.199982 24.800013,23.5 24.800013,17.699982 24.800013,13.899994 22.700007,10.5 19.700007,8.6999817L19.700007,4.5C24.900019,6.6000061 28.599999,11.699982 28.599999,17.699982 28.599999,25.600006 22.200007,32 14.300015,32 6.4000226,32 -1.4015313E-07,25.600006 0,17.699982 -1.4015313E-07,11.799988 3.6000051,6.6999817 8.8000165,4.5z M13.999996,0L14.400021,0C15.600002,0,16.499996,0.8999939,16.499996,2.1000061L16.499996,18C16.499996,19.199982,15.600002,20.100006,14.400021,20.100006L13.999996,20.100006C12.800016,20.100006,11.900022,19.199982,11.900022,18L11.900022,2.1000061C11.900022,0.8999939,12.900021,0,13.999996,0z" />
  </g>
</svg>