<?xml version="1.0" encoding="utf-8"?>
<svg xmlns="http://www.w3.org/2000/svg" height="256" width="256" viewBox="0 0 256 256">
  <g>
    <path id="path1" transform="rotate(0,128,128) translate(0,13.6198663935098) scale(8.00000953684739,8.00000953684739)  " fill="#262626" d="M24.812608,17.734999L29.794602,22.317991 29.794602,28.096998C29.794602,28.296995 29.694627,28.496 29.495591,28.496 29.395616,28.594999 29.19658,28.594999 29.096604,28.594999L26.506639,28.594999C26.406602,28.594999 26.307603,28.594999 26.307603,28.496 26.207627,28.395994 26.207627,28.296995 26.207627,28.296995L26.207627,25.507002 23.616624,25.507002 23.616624,28.296995C23.616624,28.395994 23.616624,28.496 23.517625,28.496 23.417588,28.594999 23.317613,28.594999 23.317613,28.594999L20.727586,28.594999C20.62761,28.594999 20.428636,28.594999 20.328599,28.496 20.2296,28.395994 20.029588,28.296995 20.029588,28.096998L20.029588,22.317991z M24.812608,14.048995C25.011582,14.048995,25.310594,14.147994,25.41063,14.248L31.687608,19.927C32.085618,20.225996 32.085618,20.824003 31.787583,21.221998 31.488633,21.621 30.890611,21.621 30.491624,21.321989L24.912583,16.140989 19.332627,21.321989C19.133592,21.520994 18.93358,21.520994 18.734605,21.520994 18.435594,21.520994 18.236619,21.421995 18.037583,21.221998 17.738633,20.824003 17.738633,20.225996 18.136582,19.927L24.413621,14.248C24.314622,14.147994,24.613633,14.048995,24.812608,14.048995z M11.95958,5.9779965L20.129624,13.451003 20.129624,16.738997 16.8416,19.927C16.243638,20.425001 16.243638,21.421995 16.741624,22.020003 17.040635,22.317991 17.439622,22.518004 17.837632,22.518004 18.037583,22.518004 18.236619,22.417998 18.435594,22.317991L18.435594,24.111998 14.74962,24.111998C14.550584,24.111998 14.450608,24.011992 14.350633,23.912993 14.251634,23.813002 14.151597,23.613997 14.151597,23.513991L14.151597,18.830992 9.8676005,18.830992 9.8676005,23.513991C9.8676005,23.712996 9.7676249,23.813002 9.6675883,23.912993 9.5685893,24.011992 9.3686381,24.111998 9.2696391,24.111998L4.8856059,24.111998C4.6866313,24.111998 4.38762,24.011992 4.1876078,23.912993 3.9886332,23.813002 3.7895976,23.613997 3.7895973,23.214995L3.7895973,13.550002z M11.95958,0C12.357591,7.644303E-09,12.656602,0.099990847,12.955613,0.3990021L23.317613,9.8639976C23.915635,10.46199 24.015611,11.457992 23.417588,12.055999 22.819627,12.653991 21.823594,12.75299 21.225633,12.15599L11.859605,3.5869901 2.4946147,12.15599C2.1956034,12.453994 1.7966166,12.554 1.4976055,12.554 1.0995951,12.554 0.70060831,12.354995 0.40159705,12.055999 -0.19636434,11.457992 -0.096388758,10.46199 0.50163358,9.8639976L10.863633,0.3990021C11.261582,0.099990847,11.66063,7.644303E-09,11.95958,0z" />
  </g>
</svg>