<svg width="256" height="256" xmlns="http://www.w3.org/2000/svg">
 <!-- Created with Method Draw - http://github.com/duopixel/Method-Draw/ -->

 <g>
  <title>Layer 1</title>
  <g stroke="null" id="svg_7">
   <g stroke="null" transform="matrix(0.45954852668295665,0,0,0.45954852668295665,-288.6535218480967,-89.89254200557701) " id="svg_6">
    <path stroke="null" d="m103.232308,18.301326l20.1,0l6.00001,6.5l-0.30001,0l-15.8,13.2l-15.9,-13.2l5.9,-6.5z" fill="#262626" transform="translate(0,49.199989318847656) scale(7.999999046325684) " id="svg_4"/>
   </g>
  </g>
  <g stroke="null" id="svg_14">
   <g stroke="null" transform="matrix(0.8563642823868232,0,0,0.8563642823868232,-855.533631649946,-1550.0503976995064) " id="svg_13">
    <path stroke="null" d="m145.177104,236.638254c-7.784,0 -14.11798,6.33301 -14.11798,14.11804c0,7.78497 6.33398,14.11694 14.11798,14.11694c7.784,0 14.11804,-6.33197 14.11804,-14.11694c0,-7.78503 -6.33404,-14.11804 -14.11804,-14.11804zm0,-1.88196c8.823,0 16,7.17694 16,16c0,8.82196 -7.177,16 -16,16c-8.823,0 -16,-7.17804 -16,-16c0,-8.82306 7.177,-16 16,-16z" fill="#262626" transform="translate(1.600000023841858,1.600000023841858) scale(7.900000095367432) " id="svg_11"/>
   </g>
  </g>
 </g>
</svg>