<svg width="256" height="256" xmlns="http://www.w3.org/2000/svg">
 <!-- Created with Method Draw - http://github.com/duopixel/Method-Draw/ -->

 <g>
  <title>background</title>
  <rect fill="#ffffff" id="canvas_background" height="258" width="258" y="-1" x="-1"/>
  <g display="none" id="canvasGrid">
   <rect fill="url(#gridpattern)" stroke-width="0" y="0" x="0" height="100%" width="100%" id="svg_1"/>
  </g>
 </g>
 <g>
  <title>Layer 1</title>
  <g stroke="null" id="svg_7">
   <g stroke="null" transform="matrix(0.7367046244157812,0,0,0.7367046244157812,-348.69655837520145,-347.37081271695206) " id="svg_6">
    <path stroke="null" d="m84.99147,78.33471l0,0.953c-0.76498,0.109 -1.32498,0.40399 -1.682,0.88699c-0.35498,0.48299 -0.534,1.028 -0.534,1.63199c0,0.45999 0.099,0.86499 0.29901,1.21299c0.19998,0.346 0.45899,0.614 0.77799,0.80599c0.32,0.19601 0.764,0.389 1.333,0.58601c0.63199,0.22399 1.04102,0.40899 1.223,0.55398c0.18301,0.14401 0.27502,0.359 0.27502,0.64201c0,0.27299 -0.09201,0.50399 -0.27502,0.69799c-0.18198,0.193 -0.47001,0.28899 -0.85898,0.28899c-0.83301,0 -1.323,-0.45099 -1.47101,-1.35099l-1.59799,0.41701c0.32299,1.43099 1.15899,2.21799 2.51098,2.35698l0,1.22899l1.034,0l0,-1.23499c0.811,-0.08501 1.431,-0.369 1.86099,-0.85c0.43002,-0.48199 0.64401,-1.08199 0.64401,-1.80298c0,-0.471 -0.104,-0.881 -0.31201,-1.233c-0.20999,-0.34899 -0.487,-0.62699 -0.83697,-0.82499c-0.34802,-0.199 -0.83103,-0.412 -1.44303,-0.636c-0.55999,-0.205 -0.92398,-0.37699 -1.095,-0.51499c-0.16998,-0.14 -0.25497,-0.339 -0.25497,-0.599c0,-0.256 0.08899,-0.47199 0.26599,-0.65099c0.17599,-0.18 0.41101,-0.26901 0.702,-0.26901c0.582,0 1.01,0.401 1.28698,1.203l1.42603,-0.585c-0.34003,-1.16799 -1.09003,-1.82198 -2.24402,-1.95998l0,-0.954l-1.034,0zm-5.76898,-15.60189c0.18598,-0.00301 0.40698,0.02499 0.66498,0.088c4.77701,1.16399 6.52301,4.30996 9.086,1.98098c2.505,-2.27798 4.00302,1.236 -1.04401,6.94296c3.75803,1.94998 8.99002,7.34195 8.99002,14.7169c0,1.75398 -0.30002,3.13798 -0.83801,4.23497c-0.29498,0.585 -1.06198,1.80998 -2.599,2.67099c-2.05798,1.11698 -4.87,1.36498 -7.97598,1.36498c-3.36502,0 -6.38901,-0.28699 -8.47901,-1.65899c-1.165,-0.785 -1.94,-2.09898 -2.108,-2.40098c-0.53201,-1.09399 -0.828,-2.47098 -0.828,-4.21097c0,-7.24295 5.048,-12.57492 8.789,-14.61091c-1.45999,-1.99298 -6.45001,-9.07293 -3.65799,-9.11793z" fill="#50b330" transform="translate(36.687984466552734,0) scale(8.000000953674316) " id="svg_4"/>
   </g>
  </g>
  <g stroke="null" id="svg_14">
   <g stroke="null" transform="matrix(0.6505734518429731,0,0,0.6505734518429731,-2.7927410286383765,-14.762446235474158) " id="svg_13">
    <path stroke="null" d="m19.6066,29.38173c-0.246,0 -0.49499,0.018 -0.746,0.056l-0.86199,0.12999c-0.76001,0.733 -1.743,1.25198 -2.86598,1.42198c-1.12301,0.171 -2.21599,-0.034 -3.158,-0.51299l-0.86199,0.131c-2.67497,0.40399 -4.51397,2.89995 -4.11097,5.57491l0.09601,0.63999l0.19299,1.26698l0.07599,0.49999c0.08002,0.53499 0.58001,0.90299 1.11401,0.82199l15.49589,-2.34296c0.535,-0.08 0.90399,-0.57999 0.824,-1.11498l-0.07601,-0.5l-0.19098,-1.26898l-0.09803,-0.63799c-0.36599,-2.42296 -2.44996,-4.16193 -4.82894,-4.16493zm-5.24798,-7.87688c-0.21601,0 -0.43298,0.016 -0.65298,0.049c-2.33901,0.353 -3.947,2.53496 -3.593,4.87393c0.354,2.33796 2.53499,3.94893 4.87598,3.59394c2.33699,-0.35299 3.94599,-2.53396 3.59299,-4.87392c-0.32202,-2.11897 -2.144,-3.63995 -4.22299,-3.64295zm8.56696,-7.35088c1.00899,0.001 1.89598,0.73998 2.05198,1.76897l3.25798,21.54566c0.17099,1.13598 -0.61001,2.19597 -1.74801,2.36796l-16.81687,2.54296l-1.63201,0.247l-1.13598,0.172c-1.13799,0.17099 -2.19899,-0.61099 -2.37098,-1.74697l-3.25699,-21.54467c-0.16999,-1.13798 0.61101,-2.19796 1.74799,-2.36896l1.137,-0.171l1.63099,-0.24799l16.81788,-2.54196c0.10602,-0.016 0.21201,-0.024 0.31702,-0.023zm2.55796,-0.388c1.01199,0.002 1.89699,0.74099 2.053,1.77098l3.25696,21.54266c0.172,1.13898 -0.60998,2.19796 -1.74696,2.36996l-1.372,0.208c1.13698,-0.172 1.91899,-1.23399 1.74797,-2.36897l-3.25898,-21.54466c-0.16998,-1.13598 -1.23199,-1.91897 -2.36897,-1.74697l1.372,-0.207c0.10699,-0.016 0.21298,-0.024 0.31698,-0.024zm2.43498,-0.36799c1.01001,0.002 1.89599,0.74099 2.053,1.77197l3.25599,21.54166c0.173,1.13799 -0.61001,2.19797 -1.74599,2.36896l-1.37301,0.208c1.13699,-0.17199 1.919,-1.23298 1.747,-2.36896l-3.25697,-21.54366c-0.17202,-1.13598 -1.23299,-1.91897 -2.37001,-1.74697l1.37301,-0.207c0.10699,-0.017 0.212,-0.024 0.31698,-0.024z" fill="#50b330" transform="translate(0,10.30394458770752) scale(8.000003814697266) " id="svg_11"/>
   </g>
  </g>
 </g>
</svg>