<svg width="256" height="256" xmlns="http://www.w3.org/2000/svg">
 <g>
  <title>background</title>
  <rect x="-1" y="-1" width="258" height="258" id="canvas_background" fill="none"/>
 </g>

 <g>
  <title>Layer 1</title>
  <g stroke="null" id="svg_1">
   <path stroke="null" id="path1" transform="translate(40,50.99995040893555) scale(5.500003337860107) " fill="#62A94A" d="m1.460619,28.429487l3.76505,0l0,1.255017l-3.76505,0l0,-1.255017zm-4.377937,-0.627514c-0.148073,0 -0.288635,0.055842 -0.39971,0.157511l-1.800968,2.352522l16.922299,0l-1.800974,-2.352522c-0.111075,-0.101669 -0.251637,-0.157511 -0.399779,-0.157511l-12.520867,0zm0,-1.255017l12.520867,0c0.490705,0 0.971452,0.202685 1.318458,0.555351l0.050175,0.058352l2.173714,2.839468c0.240373,0.27109 0.304951,0.655125 0.16255,0.99209c-0.146235,0.349522 -0.484431,0.574803 -0.860998,0.574803l-18.208666,0c-0.376499,0 -0.714695,-0.225282 -0.860923,-0.574803c-0.142482,-0.336966 -0.07783,-0.721001 0.161859,-0.99209l2.224573,-2.897821c0.347006,-0.352666 0.827678,-0.555351 1.318389,-0.555351l0.000001,0.000001zm6.269216,-5.961329c0.519577,0 0.941263,0.421686 0.941263,0.941263c0,0.519577 -0.421686,0.941263 -0.941263,0.941263c-0.519577,0 -0.941263,-0.421686 -0.941263,-0.941263c0,-0.519577 0.421686,-0.941263 0.941263,-0.941263zm0.028288,-1.95531c0.860264,0 1.667823,0.436118 2.273958,1.229289c0.210203,0.275477 0.157492,0.668924 -0.117966,0.879133c-0.113573,0.08723 -0.247226,0.129273 -0.380245,0.129273c-0.188874,0 -0.375859,-0.08472 -0.499472,-0.246611c-0.712178,-0.93185 -1.790174,-0.953812 -2.516158,-0.047063c-0.215223,0.269828 -0.609273,0.315003 -0.881599,0.097884c-0.271064,-0.216484 -0.314363,-0.611814 -0.097258,-0.882271c0.598612,-0.74799 1.386712,-1.159635 2.218737,-1.159635l0.000003,0.000001zm0.000364,-2.062005c1.376804,0 2.685208,0.69654 3.685494,1.962231c0.215248,0.271711 0.169434,0.666414 -0.102911,0.881655c-0.114841,0.090988 -0.252271,0.134914 -0.388446,0.134914c-0.185748,0 -0.368987,-0.081576 -0.492613,-0.238459c-0.757428,-0.957578 -1.716926,-1.485319 -2.701523,-1.485319c-0.964518,0 -1.908956,0.508915 -2.658853,1.433235c-0.217758,0.267953 -0.613729,0.310623 -0.882315,0.091616c-0.269207,-0.219 -0.310623,-0.613703 -0.092244,-0.882904c0.993383,-1.22302 2.283591,-1.89697 3.633411,-1.89697l-0.000001,0.000001zm-6.312489,-1.316506l0,8.785116l12.550793,0l-0.000628,-8.785116l-12.550167,0l0.000001,0zm0,-1.255017l12.550167,0c0.692142,0 1.255017,0.562875 1.255017,1.255017l0,8.785116c0,0.692142 -0.562875,1.255017 -1.255017,1.255017l-12.550167,0c-0.692142,0 -1.255017,-0.562875 -1.255017,-1.255017l0,-8.785116c0,-0.692142 0.562875,-1.255017 1.255017,-1.255017z"/>
  </g>
  <g stroke="null" id="svg_8">
   <g stroke="null" id="svg_7" transform="matrix(0.5497388266228785,0,0,0.5497388266228785,-469.2051740380916,-451.66920034498196) ">
    <path stroke="null" id="svg_5" transform="translate(57.32500457763672,40) scale(5.5) " fill="#62A94A" d="m206.911365,195.49538c-0.20001,0 -0.4,0.20001 -0.4,0.29999l0,0.80005c0,0.19995 0.19999,0.29999 0.4,0.29999l2.79999,0c0.20001,0 0.39999,-0.20002 0.39999,-0.29999l0,-0.80005c0,-0.19995 -0.19998,-0.29999 -0.39999,-0.29999l-2.79999,0zm-4.9,0c-0.20001,0 -0.40002,0.20001 -0.40002,0.29999l0,0.80005c0,0.19995 0.20001,0.29999 0.40002,0.29999l2.79999,0c0.20001,0 0.39999,-0.20002 0.39999,-0.29999l0,-0.80005c0,-0.19995 -0.19998,-0.29999 -0.39999,-0.29999l-2.79999,0zm-4.70002,0c-0.20001,0 -0.39999,0.20001 -0.39999,0.29999l0,0.80005c0,0.19995 0.19998,0.29999 0.39999,0.29999l2.79999,0c0.20002,0 0.40003,-0.20002 0.40003,-0.29999l0,-0.80005c0,-0.19995 -0.20001,-0.29999 -0.40003,-0.29999l-2.79999,0zm9.60002,-2.59997c-0.20001,0 -0.4,0.20001 -0.4,0.29998l0,0.79999c0,0.20001 0.19999,0.29999 0.4,0.29999l2.79999,0c0.20001,0 0.39999,-0.19995 0.39999,-0.29999l0,-0.70001c0,-0.19995 -0.19998,-0.29999 -0.39999,-0.29999l-2.79999,0l0,-0.09997zm-4.9,0c-0.20001,0 -0.40002,0.20001 -0.40002,0.29998l0,0.79999c0,0.20001 0.20001,0.29999 0.40002,0.29999l2.79999,0c0.20001,0 0.39999,-0.19995 0.39999,-0.29999l0,-0.70001c0,-0.19995 -0.19998,-0.29999 -0.39999,-0.29999l-2.79999,0l0,-0.09997zm-4.70002,0c-0.20001,0 -0.39999,0.20001 -0.39999,0.29998l0,0.79999c0,0.20001 0.19998,0.29999 0.39999,0.29999l2.79999,0c0.20002,0 0.40003,-0.19995 0.40003,-0.29999l0,-0.70001c0,-0.19995 -0.20001,-0.29999 -0.40003,-0.29999l-2.79999,0l0,-0.09997zm9.60002,-2.60004c-0.20001,0 -0.4,0.20001 -0.4,0.30005l0,0.79999c0,0.20001 0.19999,0.29998 0.4,0.29998l2.79999,0c0.20001,0 0.39999,-0.20001 0.39999,-0.29998l0,-0.79999c0,-0.20001 -0.19998,-0.30005 -0.39999,-0.30005l-2.79999,0zm-4.9,0c-0.20001,0 -0.40002,0.20001 -0.40002,0.30005l0,0.79999c0,0.20001 0.20001,0.29998 0.40002,0.29998l2.79999,0c0.20001,0 0.39999,-0.20001 0.39999,-0.29998l0,-0.79999c0,-0.20001 -0.19998,-0.30005 -0.39999,-0.30005l-2.79999,0zm-4.70002,0c-0.20001,0 -0.39999,0.20001 -0.39999,0.30005l0,0.79999c0,0.20001 0.19998,0.29998 0.39999,0.29998l2.79999,0c0.20002,0 0.40003,-0.20001 0.40003,-0.29998l0,-0.79999c0,-0.20001 -0.20001,-0.30005 -0.40003,-0.30005l-2.79999,0zm-1.89999,-17.39996l3.19998,0l0,1.29998l-1.09997,0c-0.30002,-0.09997 -0.40003,0.09998 -0.40003,0.29999l0,13.90003c0,0.20001 0.20002,0.29998 0.40003,0.29998l4.5,0l0.09998,0l7.60001,0c0.20001,0 0.39999,-0.20001 0.39999,-0.29998l0,-4.5l1.70002,-1l0,15.39996l-16.40001,0l0,-25.39996zm19.90001,-0.70002c-0.70001,0 -1.20001,0.5 -1.20001,1.09998c0,0.60004 0.6,1.10004 1.20001,1.10004c0.70001,0 1.20001,-0.5 1.20001,-1.10004c0,-0.59998 -0.5,-1.09998 -1.20001,-1.09998zm-4.9,0c-0.70001,0 -1.20001,0.5 -1.20001,1.09998c0,0.60004 0.6,1.10004 1.20001,1.10004c0.69998,0 1.19998,-0.5 1.19998,-1.10004c0,-0.59998 -0.5,-1.09998 -1.19998,-1.09998zm-5,0c-0.70002,0 -1.20002,0.5 -1.20002,1.09998c0,0.60004 0.60001,1.10004 1.20002,1.10004c0.69998,0 1.19998,-0.5 1.19998,-1.10004c0.10001,-0.59998 -0.5,-1.09998 -1.19998,-1.09998zm-0.10001,-5.90002l10.4,0c3,0 5.4,2.20001 5.4,5l0,4.80005c0,2.69995 -2.4,5 -5.4,5l-3.69998,0l-7.90003,4.89996l1.20001,-4.89996c-3,0 -5.4,-2.20001 -5.4,-5l0,-4.80005c0.10001,-2.79999 2.5,-5 5.4,-5z"/>
   </g>
  </g>
  <g stroke="null" id="svg_15">
   <g stroke="null" id="svg_14" transform="matrix(0.5339441713254215,0,0,0.5339441713254215,-466.0470077309574,-479.08809874376664) ">
    <path stroke="null" id="svg_12" transform="translate(57.04999542236328,40) scale(5.5) " fill="#62A94A" d="m168.796057,174.936695l2.8,0c0.4,4.20001 4.7,7.5 10.09999,7.5c5.40001,0 9.70001,-3.29999 10.10001,-7.5l2.8,0c0,5.29999 -4.90001,9.59997 -11.2,10.20001l0,2.89996l4.4,0l0,2.60004l-12,0l0,-2.60004l4.39999,0l0,-2.89996c-6.5,-0.60004 -11.39999,-4.90002 -11.39999,-10.20001zm12.89999,-16.29999c3.30001,0 5.90001,2.09998 5.90001,4.79999l0,10.5c0,2.59997 -2.7,4.79999 -5.90001,4.79999c-3.19999,0 -5.89999,-2.09998 -5.89999,-4.79999l0,-10.5c-0.10001,-2.70001 2.6,-4.79999 5.89999,-4.79999z"/>
   </g>
  </g>
 </g>
</svg>