<svg width="256" height="256" xmlns="http://www.w3.org/2000/svg">
 <g>
  <title>background</title>
  <rect x="-1" y="-1" width="258" height="258" id="canvas_background" fill="none"/>
 </g>

 <g>
  <title>Layer 1</title>
  <g stroke="null" id="svg_8">
   <g stroke="null" id="svg_7" transform="matrix(0.5497388266228785,0,0,0.5497388266228785,-469.2051740380916,-451.66920034498196) ">
    <path stroke="null" id="svg_5" transform="translate(57.32500457763672,40) scale(5.5) " fill="#62A94A" d="m206.911365,195.49538c-0.20001,0 -0.4,0.20001 -0.4,0.29999l0,0.80005c0,0.19995 0.19999,0.29999 0.4,0.29999l2.79999,0c0.20001,0 0.39999,-0.20002 0.39999,-0.29999l0,-0.80005c0,-0.19995 -0.19998,-0.29999 -0.39999,-0.29999l-2.79999,0zm-4.9,0c-0.20001,0 -0.40002,0.20001 -0.40002,0.29999l0,0.80005c0,0.19995 0.20001,0.29999 0.40002,0.29999l2.79999,0c0.20001,0 0.39999,-0.20002 0.39999,-0.29999l0,-0.80005c0,-0.19995 -0.19998,-0.29999 -0.39999,-0.29999l-2.79999,0zm-4.70002,0c-0.20001,0 -0.39999,0.20001 -0.39999,0.29999l0,0.80005c0,0.19995 0.19998,0.29999 0.39999,0.29999l2.79999,0c0.20002,0 0.40003,-0.20002 0.40003,-0.29999l0,-0.80005c0,-0.19995 -0.20001,-0.29999 -0.40003,-0.29999l-2.79999,0zm9.60002,-2.59997c-0.20001,0 -0.4,0.20001 -0.4,0.29998l0,0.79999c0,0.20001 0.19999,0.29999 0.4,0.29999l2.79999,0c0.20001,0 0.39999,-0.19995 0.39999,-0.29999l0,-0.70001c0,-0.19995 -0.19998,-0.29999 -0.39999,-0.29999l-2.79999,0l0,-0.09997zm-4.9,0c-0.20001,0 -0.40002,0.20001 -0.40002,0.29998l0,0.79999c0,0.20001 0.20001,0.29999 0.40002,0.29999l2.79999,0c0.20001,0 0.39999,-0.19995 0.39999,-0.29999l0,-0.70001c0,-0.19995 -0.19998,-0.29999 -0.39999,-0.29999l-2.79999,0l0,-0.09997zm-4.70002,0c-0.20001,0 -0.39999,0.20001 -0.39999,0.29998l0,0.79999c0,0.20001 0.19998,0.29999 0.39999,0.29999l2.79999,0c0.20002,0 0.40003,-0.19995 0.40003,-0.29999l0,-0.70001c0,-0.19995 -0.20001,-0.29999 -0.40003,-0.29999l-2.79999,0l0,-0.09997zm9.60002,-2.60004c-0.20001,0 -0.4,0.20001 -0.4,0.30005l0,0.79999c0,0.20001 0.19999,0.29998 0.4,0.29998l2.79999,0c0.20001,0 0.39999,-0.20001 0.39999,-0.29998l0,-0.79999c0,-0.20001 -0.19998,-0.30005 -0.39999,-0.30005l-2.79999,0zm-4.9,0c-0.20001,0 -0.40002,0.20001 -0.40002,0.30005l0,0.79999c0,0.20001 0.20001,0.29998 0.40002,0.29998l2.79999,0c0.20001,0 0.39999,-0.20001 0.39999,-0.29998l0,-0.79999c0,-0.20001 -0.19998,-0.30005 -0.39999,-0.30005l-2.79999,0zm-4.70002,0c-0.20001,0 -0.39999,0.20001 -0.39999,0.30005l0,0.79999c0,0.20001 0.19998,0.29998 0.39999,0.29998l2.79999,0c0.20002,0 0.40003,-0.20001 0.40003,-0.29998l0,-0.79999c0,-0.20001 -0.20001,-0.30005 -0.40003,-0.30005l-2.79999,0zm-1.89999,-17.39996l3.19998,0l0,1.29998l-1.09997,0c-0.30002,-0.09997 -0.40003,0.09998 -0.40003,0.29999l0,13.90003c0,0.20001 0.20002,0.29998 0.40003,0.29998l4.5,0l0.09998,0l7.60001,0c0.20001,0 0.39999,-0.20001 0.39999,-0.29998l0,-4.5l1.70002,-1l0,15.39996l-16.40001,0l0,-25.39996zm19.90001,-0.70002c-0.70001,0 -1.20001,0.5 -1.20001,1.09998c0,0.60004 0.6,1.10004 1.20001,1.10004c0.70001,0 1.20001,-0.5 1.20001,-1.10004c0,-0.59998 -0.5,-1.09998 -1.20001,-1.09998zm-4.9,0c-0.70001,0 -1.20001,0.5 -1.20001,1.09998c0,0.60004 0.6,1.10004 1.20001,1.10004c0.69998,0 1.19998,-0.5 1.19998,-1.10004c0,-0.59998 -0.5,-1.09998 -1.19998,-1.09998zm-5,0c-0.70002,0 -1.20002,0.5 -1.20002,1.09998c0,0.60004 0.60001,1.10004 1.20002,1.10004c0.69998,0 1.19998,-0.5 1.19998,-1.10004c0.10001,-0.59998 -0.5,-1.09998 -1.19998,-1.09998zm-0.10001,-5.90002l10.4,0c3,0 5.4,2.20001 5.4,5l0,4.80005c0,2.69995 -2.4,5 -5.4,5l-3.69998,0l-7.90003,4.89996l1.20001,-4.89996c-3,0 -5.4,-2.20001 -5.4,-5l0,-4.80005c0.10001,-2.79999 2.5,-5 5.4,-5z"/>
   </g>
  </g>
  <g stroke="null" id="svg_15">
   <g stroke="null" id="svg_14" transform="matrix(0.5339441713254215,0,0,0.5339441713254215,-466.0470077309574,-479.08809874376664) ">
    <path stroke="null" id="svg_12" transform="translate(57.04999542236328,40) scale(5.5) " fill="#62A94A" d="m168.796057,174.936695l2.8,0c0.4,4.20001 4.7,7.5 10.09999,7.5c5.40001,0 9.70001,-3.29999 10.10001,-7.5l2.8,0c0,5.29999 -4.90001,9.59997 -11.2,10.20001l0,2.89996l4.4,0l0,2.60004l-12,0l0,-2.60004l4.39999,0l0,-2.89996c-6.5,-0.60004 -11.39999,-4.90002 -11.39999,-10.20001zm12.89999,-16.29999c3.30001,0 5.90001,2.09998 5.90001,4.79999l0,10.5c0,2.59997 -2.7,4.79999 -5.90001,4.79999c-3.19999,0 -5.89999,-2.09998 -5.89999,-4.79999l0,-10.5c-0.10001,-2.70001 2.6,-4.79999 5.89999,-4.79999z"/>
   </g>
  </g>
 </g>
</svg>