<?xml version="1.0" encoding="utf-8"?>
<svg xmlns="http://www.w3.org/2000/svg" height="256" width="256" viewBox="0 0 256 256">
  <g>
    <path id="path1" transform="rotate(0,128,128) translate(0,2.07200622558588) scale(8,8)  " fill="#50B330" d="M0,22.328006C3.5270004,24.94501 9.2549973,26.591983 16,26.591983 22.744995,26.591983 28.473007,24.94501 32,22.328006L32,26.192996C29.755997,29.265994 23.449005,31.481998 16,31.481998 8.552002,31.481998 2.2440033,29.265994 0,26.192996z M0,13.964998C3.6760025,16.859987 9.8470001,18.363984 16,18.363984 22.153,18.363984 28.324005,16.859987 32,13.964998L32,18.444001C29.755997,21.514011 23.449005,23.733005 16,23.733005 8.552002,23.733005 2.2440033,21.514011 0,18.444001z M16,0C23.449005,-2.120014E-07,29.755997,2.2189941,32,5.2909853L32,10.212983C29.755997,13.285981 23.449005,15.502992 16,15.502992 8.552002,15.502992 2.2440033,13.285981 0,10.212983L0,5.2909853C2.2440033,2.2189941,8.552002,-2.120014E-07,16,0z" />
  </g>
</svg>

