<?xml version="1.0" encoding="utf-8"?>
<svg xmlns="http://www.w3.org/2000/svg" height="256" width="256" viewBox="0 0 256 256">
  <g>
    <path id="path1" transform="rotate(0,128,128) translate(49.6000061035156,0) scale(8,8)  " fill="#50B330" d="M13.899003,28.899994C13.599015,28.899994,13.399003,29.100006,13.399003,29.299988L13.399003,30.199982C13.399003,30.399994,13.599015,30.600006,13.899003,30.600006L17.300009,30.600006C17.59902,30.600006,17.800009,30.399994,17.800009,30.199982L17.800009,29.299988C17.800009,29.100006,17.59902,28.899994,17.300009,28.899994z M8.0000096,28.899994C7.6989837,28.899994,7.5000091,29.100006,7.5000091,29.299988L7.5000091,30.199982C7.5000091,30.399994,7.6989837,30.600006,8.0000096,30.600006L11.399,30.600006C11.698989,30.600006,11.899001,30.399994,11.899001,30.199982L11.899001,29.299988C11.899001,29.100006,11.698989,28.899994,11.399,28.899994z M2.2999907,28.899994C2.0000023,28.899994,1.7999899,29.100006,1.7999897,29.299988L1.7999897,30.199982C1.7999899,30.399994,2.0000023,30.600006,2.2999907,30.600006L5.6989813,30.600006C6.0000072,30.600006,6.1989818,30.399994,6.1989818,30.199982L6.1989818,29.299988C6.1989818,29.100006,6.0000072,28.899994,5.6989813,28.899994z M13.899003,25.699982C13.599015,25.699982,13.399003,25.899994,13.399003,26.100006L13.399003,27C13.399003,27.199982,13.599015,27.399994,13.899003,27.399994L17.300009,27.399994C17.59902,27.399994,17.800009,27.199982,17.800009,27L17.800009,26.100006C17.800009,25.899994,17.59902,25.699982,17.300009,25.699982z M8.0000096,25.699982C7.6989837,25.699982,7.5000091,25.899994,7.5000091,26.100006L7.5000091,27C7.5000091,27.199982,7.6989837,27.399994,8.0000096,27.399994L11.399,27.399994C11.698989,27.399994,11.899001,27.199982,11.899001,27L11.899001,26.100006C11.899001,25.899994,11.698989,25.699982,11.399,25.699982z M2.2999907,25.699982C2.0000023,25.699982,1.7999899,25.899994,1.7999897,26.100006L1.7999897,27C1.7999899,27.199982,2.0000023,27.399994,2.2999907,27.399994L5.6989813,27.399994C6.0000072,27.399994,6.1989818,27.199982,6.1989818,27L6.1989818,26.100006C6.1989818,25.899994,6.0000072,25.699982,5.6989813,25.699982z M13.899003,22.5C13.599015,22.5,13.399003,22.699982,13.399003,22.899994L13.399003,23.799988C13.399003,24,13.599015,24.199982,13.899003,24.199982L17.300009,24.199982C17.59902,24.199982,17.800009,24,17.800009,23.799988L17.800009,22.899994C17.800009,22.699982,17.59902,22.5,17.300009,22.5z M8.0000096,22.5C7.6989837,22.5,7.5000091,22.699982,7.5000091,22.899994L7.5000091,23.799988C7.5000091,24,7.6989837,24.199982,8.0000096,24.199982L11.399,24.199982C11.698989,24.199982,11.899001,24,11.899001,23.799988L11.899001,22.899994C11.899001,22.699982,11.698989,22.5,11.399,22.5z M2.2999907,22.5C2.0000023,22.5,1.7999899,22.699982,1.7999897,22.899994L1.7999897,23.799988C1.7999899,24,2.0000023,24.199982,2.2999907,24.199982L5.6989813,24.199982C6.0000072,24.199982,6.1989818,24,6.1989818,23.799988L6.1989818,22.899994C6.1989818,22.699982,6.0000072,22.5,5.6989813,22.5z M2.0000024,2.6000061L2.0000024,20.399994 17.700033,20.399994 17.700033,2.6000061z M17.59902,0.8999939C17.399008,0.8999939 17.198996,1.1000061 17.198996,1.2999878 17.198996,1.5 17.399008,1.6999817 17.59902,1.6999817 17.800009,1.6999817 18.000021,1.5 18.000021,1.2999878 18.000021,1.1000061 17.800009,0.8999939 17.59902,0.8999939z M0,0L19.599999,0 19.599999,32 0,32z" />
  </g>
</svg>

