<svg width="256" height="256" xmlns="http://www.w3.org/2000/svg">

 <g>
  <title>background</title>
  <rect fill="none" id="canvas_background" height="402" width="582" y="-1" x="-1"/>
 </g>
 <g>
  <title>Layer 1</title>
  <g stroke="null" id="svg_1">
   <path stroke="null" d="m16.734743,18.069693l16.792579,0c0.538255,0 0.974665,0.484965 0.974665,1.083026l0,16.782511c0,0.598657 -0.436409,1.08303 -0.974665,1.08303l-4.84788,0l0,-7.785494l2.329484,0l0,-2.529039l-2.329484,0l0,-0.847356c0,-0.615829 0.490296,-1.115007 1.097239,-1.115007l1.232245,0l0,-2.527855l-2.667606,0c-1.620693,0 -2.934058,1.332913 -2.934058,2.977885l0,1.512333l-2.1021,0l0,2.529039l2.1021,0l0,7.785494l-8.67252,0c-0.538255,0 -0.974665,-0.484373 -0.974665,-1.08303l0,-16.782511c0,-0.598061 0.436409,-1.083026 0.974665,-1.083026z" fill="#62A94A" transform="translate(40.95975112915039,40) scale(5.5) " id="path1"/>
  </g>
  <g stroke="null" id="svg_8">
   <g stroke="null" transform="matrix(0.6565654092737551,0,0,0.6565654092737551,-580.5232518775207,-600.5538747939781) " id="svg_7">
    <path stroke="null" d="m196.688699,178.958292c-0.765,0 -1.425995,0.432981 -1.757996,1.066984c-0.140991,0.269012 -0.403992,0.46701 -0.709,0.46701l-3.263,0c-0.287003,0 -0.520004,0.216004 -0.520004,0.480988c0,0.265991 0.233001,0.481994 0.520004,0.481994l3.281998,0c0.302002,0 0.569,0.187012 0.716003,0.451996c0.337006,0.611023 0.981995,1.025025 1.731995,1.025025c0.748001,0 1.393005,-0.414002 1.731002,-1.025025c0.146012,-0.264984 0.412003,-0.451996 0.715012,-0.451996l17.19899,0c0.287003,0 0.520996,-0.216003 0.520996,-0.481994c0,-0.264984 -0.233993,-0.480988 -0.520996,-0.480988l-17.181,0c-0.304001,0 -0.567001,-0.197998 -0.708999,-0.46701c-0.330002,-0.634003 -0.990998,-1.066984 -1.755005,-1.066984zm5.248001,-12.669005c0.175003,0.001983 0.361007,0.063995 0.541,0.190979l4.447006,2.619018c0.546997,0.385986 0.556,1.029998 0.018006,1.429992l-4.376007,2.717986c-0.235993,0.175019 -0.492997,0.210022 -0.722992,0.140015c-0.673004,-0.205994 -0.664002,-1.085998 -0.670014,-1.790008l-0.028991,-3.565002c-0.005997,-0.723999 -0.003998,-1.681976 0.716995,-1.740997c0.025009,-0.001983 0.050003,-0.002991 0.074997,-0.001983zm-10.408997,-4.351013c-0.589996,0 -1.067001,0.47699 -1.067001,1.067016l0,12.840972c0,0.590026 0.477005,1.068023 1.067001,1.068023l24.166001,0c0.589996,0 1.068008,-0.477997 1.068008,-1.068023l0,-12.840971c0,-0.590027 -0.478012,-1.067017 -1.068008,-1.067017l-24.166001,0zm-1.080994,-2.851989l26.326996,0c1.571,0.005981 2.833008,1.266998 2.837006,2.837982l0,20.96902c-0.005005,1.569 -1.266006,2.829987 -2.835007,2.835999l-26.328995,0c-1.570999,-0.006012 -2.833007,-1.266999 -2.835998,-2.835999l0.015991,-5.084013c-0.011001,-0.096008 -0.015991,-0.194 -0.015991,-0.291992l0,-15.593015c0.00499,-1.570984 1.264999,-2.832001 2.835999,-2.837982l-0.000001,0z" fill="#62A94A" transform="translate(40,54.731746673583984) scale(5.5) " id="svg_5"/>
   </g>
  </g>
  <g stroke="null" id="svg_15">
   <g stroke="null" transform="matrix(0.5428883517181804,0,0,0.5428883517181804,-472.9128037936137,-446.4478686458066) " id="svg_14">
    <path stroke="null" d="m168.832722,177.726583c-0.235992,-0.001007 -0.467988,0.016022 -0.695985,0.049011c-2.199009,0.324982 -3.936011,2.216004 -3.950019,4.450989c-0.009002,1.527008 0.664003,2.871002 1.731998,3.737l0.058014,0.04602l0.029998,0.02298c0.764987,0.589996 1.722995,0.938995 2.772985,0.945007c2.500005,0.015015 4.630013,-2.049988 4.645028,-4.502991c0.016998,-2.652008 -1.997013,-4.734008 -4.592019,-4.748016zm-15.638026,-0.113983c2.924015,0.013 5.848001,0.007995 8.772017,0.009003c0.036988,0 0.072998,0.010986 0.164002,0.026c-1.545016,2.365998 -1.919009,4.877991 -0.962007,7.529999c0.631013,1.746979 1.770999,3.108979 3.35401,4.087982c3.118016,1.931 7.174999,1.507019 9.825027,-0.984008c2.644995,-2.484986 3.627999,-6.867981 1.075991,-10.661988l2.381016,0c2.185978,0 4.372993,0.006012 6.560009,-0.006988c0.289001,-0.001007 0.366974,0.071991 0.365997,0.36499c-0.009003,4.683991 0.000977,9.368012 -0.009003,14.052002c-0.007019,3.35199 -2.852024,6.169006 -6.205026,6.169983c-6.469006,0 -12.938011,0 -19.408022,0c-3.376013,0 -6.215007,-2.819977 -6.219005,-6.194977c-0.007019,-4.67102 -0.001007,-9.341003 -0.003997,-14.011993c-0.001008,-0.225006 -0.013001,-0.382019 0.308991,-0.380005zm15.615016,-1.546021c3.444007,0.003022 6.243022,2.806 6.26002,6.269013c0.016998,3.481994 -2.799015,6.287994 -6.310008,6.286987c-3.449011,-0.000976 -6.252025,-2.800995 -6.268016,-6.259979c-0.014984,-3.466004 2.827001,-6.298004 6.318004,-6.296021zm10.330035,-7.220001c-0.563021,0 -1.126009,0.003998 -1.688023,0.011017c-0.270996,0.003998 -0.497985,0.083984 -0.666992,0.225006c-0.216982,0.181 -0.339998,0.462982 -0.342989,0.808991c-0.005005,0.569 -0.002014,1.138 -0.001007,1.708007c0,0.569001 -0.006012,1.138001 0.001007,1.707001c0.006989,0.610993 0.410982,1.011993 1.02701,1.014984c1.112002,0.006012 2.22498,0.007019 3.336981,0c0.480011,-0.002991 0.84601,-0.272003 0.969027,-0.686004c0.028991,-0.095978 0.043975,-0.198975 0.044982,-0.307984c0.01001,-1.152008 0.009003,-2.303009 0,-3.45401c-0.003997,-0.593994 -0.39801,-1.006988 -0.992006,-1.014984c-0.562988,-0.008026 -1.126009,-0.012024 -1.68799,-0.012024zm-17.550049,-2.647003c5.679026,0.011017 11.358021,0.002014 17.036039,0.01001c3.052008,0.003998 5.824015,2.571014 6.05601,5.618011c0.115999,1.522003 0.015014,3.049988 0.048004,4.575989c0.006012,0.26001 -0.126007,0.252014 -0.308014,0.251007c-1.397982,-0.002991 -2.794987,-0.002014 -4.191992,-0.002014c-1.746006,0 -3.492012,-0.003998 -5.239023,0.005005c-0.270996,0.001007 -0.470001,-0.062989 -0.681002,-0.259003c-3.157993,-2.938995 -8.003003,-2.901978 -11.129992,0.076996c-0.146027,0.139007 -0.289002,0.181 -0.479005,0.180023c-3.156011,-0.003998 -6.313029,-0.003021 -9.46904,-0.003021c-0.171997,0 -0.356995,0.059997 -0.349976,-0.247986c0.036987,-1.536987 -0.087006,-3.080994 0.057983,-4.613007c0.173005,-1.819 1.063997,-3.263 2.514012,-4.365997c0.015991,-0.013 0.045013,-0.009003 0.115998,-0.019989c0,2.134979 0.006988,4.242981 -0.006989,6.350006c-0.003021,0.303986 0.074982,0.384979 0.377991,0.377991c0.882997,-0.018005 0.884004,-0.003998 0.884005,-0.877014c-0.000001,-2.095978 -0.001008,-4.191986 0,-6.286987c-0.000001,-0.281006 0.62201,-0.69101 0.867005,-0.565003c0.130006,0.06601 0.061981,0.208008 0.062988,0.312988c0.003998,2.056 0.002991,4.113007 0.002991,6.170014l0,0.270996c0,0.980011 0,0.970001 0.951021,0.973999c0.268006,0.001007 0.350007,-0.067993 0.346009,-0.342987c-0.015015,-1.164002 -0.006012,-2.328003 -0.006012,-3.493012c0,-1.253997 0.018006,-2.510009 -0.01001,-3.764007c-0.009002,-0.431 0.253999,-0.311981 0.475008,-0.324982c0.236999,-0.013 0.431,-0.049011 0.428009,0.333984c-0.020996,2.393006 -0.003998,4.786011 -0.018005,7.179016c-0.002014,0.312989 0.062011,0.420991 0.394989,0.414002c0.903017,-0.02002 0.904024,-0.003998 0.904024,-0.907013c0,-2.212006 0.004975,-4.424011 -0.006012,-6.635986c-0.002014,-0.289002 0.052002,-0.393006 0.372986,-0.392029z" fill="#62A94A" transform="translate(40.35204315185547,40) scale(5.499998569488525) " id="svg_12"/>
   </g>
  </g>
 </g>
</svg>