<?xml version="1.0" encoding="utf-8"?>
<svg xmlns="http://www.w3.org/2000/svg" height="256" width="256" viewBox="0 0 256 256">
  <g>
    <path id="path1" transform="rotate(0,128,128) translate(0,46.3999938964844) scale(8,8)  " fill="#000000" d="M4,12.699987L11.700012,12.699987 11.700012,14.000005 4,14.000005z M27.799988,11.500004C27.900024,11.500004,27.900024,11.500004,27.900024,11.59998L27.799988,14.000005C27.799988,14.299993,27.599976,14.000005,27.599976,14.000005L27.299988,13.500005C26.200012,15.000005 24.5,16.000005 22.5,16.000005 20.200012,16.000005 18.200012,14.699987 17.299988,12.799993 17.200012,12.59998 17.099976,12.399998 17,12.199986 16.900024,11.500004 17.700012,11.399998 18,11.699986 18.099976,11.799992 18.299988,12.09998 18.400024,12.299992 19.200012,13.799993 20.700012,14.799993 22.5,14.799993 24.099976,14.799993 25.400024,14.000005 26.299988,12.799993L25.700012,12.699987C25.700012,12.699987,25.400024,12.699987,25.599976,12.500004z M4,9.500003L11.700012,9.500003 11.700012,10.899998 4,10.899998z M22,6.2999898L23,6.2999898 23,7.1999842C23.599976,7.1999842,24,7.3999964,24.200012,7.5000025L24.299988,7.5999781 24,8.5999786 23.799988,8.500003C23.599976,8.3999969 23.200012,8.1999847 22.599976,8.1999847 22.099976,8.1999847 21.900024,8.3999969 21.900024,8.6999847 21.900024,9.000003 22.200012,9.1999847 22.900024,9.500003 24,9.8999969 24.5,10.500004 24.5,11.399998 24.5,12.299992 23.900024,13.000005 22.900024,13.199987L22.900024,14.199987 21.799988,14.199987 21.799988,13.299993C21.299988,13.299993,20.700012,13.09998,20.400024,12.899999L20.299988,12.799993 20.599976,11.59998 20.799988,11.699986C21,11.799992 21.5,12.09998 22.200012,12.09998 22.700012,12.09998 23.099976,11.899998 23.099976,11.500004 23.099976,11.199986 22.900024,11.000004 22.200012,10.699986 21.400024,10.399998 20.5,9.8999969 20.5,8.8999969 20.5,8.000003 21.099976,7.3999964 22,7.1999842z M4,6.2999898L11.700012,6.2999898 11.700012,7.6999842 4,7.6999842z M22.400024,4.2999893C24.700012,4.2999893 26.700012,5.5999776 27.599976,7.5000025 27.700012,7.6999842 27.799988,7.8999964 27.900024,8.0999786 28,8.7999908 27.200012,8.8999969 26.900024,8.5999786 26.799988,8.500003 26.599976,8.1999847 26.5,8.000003 25.700012,6.500002 24.200012,5.500002 22.400024,5.500002 20.799988,5.500002 19.5,6.2999898 18.599976,7.5000025L19.200012,7.5999781C19.200012,7.5999781,19.5,7.5999781,19.299988,7.7999903L17.099976,8.7999908C17,8.7999908,17,8.7999908,17,8.6999847L17.099976,6.2999898C17.099976,6.000002,17.299988,6.2999898,17.299988,6.2999898L17.599976,6.7999903C18.700012,5.2999893,20.5,4.2999893,22.400024,4.2999893z M1.5999756,1.5000005L1.5999756,18.799995 30.400024,18.799995 30.400024,1.5000005z M0,0L32,0 32,20.400001 0,20.400001z" />
  </g>
</svg>

