<?xml version="1.0" encoding="utf-8"?>
<svg xmlns="http://www.w3.org/2000/svg" height="256" width="256" viewBox="0 0 256 256">
  <g>
    <path id="path1" transform="rotate(0,128,128) translate(59.7525332570076,59) scale(4.3125,4.3125)  " fill="#000000" d="M11.623993,16.419998L11.623993,18.25 13.183989,18.25C15.06198,18.25,16.537993,17.639999,17.611998,16.419998z M11.623993,10.555008L11.623993,13.165009 19.54898,13.165009C19.649993,12.690002 19.699981,12.205002 19.699981,11.714996 19.699981,11.354996 19.657988,10.970001 19.574981,10.555008z M11.623993,5.5299988L11.623993,7.2949982 17.837981,7.2949982C16.764983,6.1200027,15.213988,5.5299988,13.183989,5.5299988z M3.4979857,0L14.592986,0C18.181975,0 21.028991,0.625 23.134978,1.8850021 25.239989,3.1399994 26.68698,4.9449997 27.474975,7.2949982L31.651,7.2949982 31.651,10.574997 28.128997,10.574997C28.145995,10.680008 28.161986,10.830002 28.178985,11.035004 28.195983,11.235001 28.203978,11.410004 28.203978,11.559998 28.203978,11.854996 28.191985,12.125 28.165984,12.360001 28.14099,12.600006 28.111998,12.865005 28.078002,13.165009L31.651,13.165009 31.651,16.419998 26.945983,16.419998C26.410003,17.555008 25.712981,18.574997 24.858001,19.490005 24.00299,20.404999 23.012999,21.184998 21.888976,21.820007 20.76599,22.464996 19.527984,22.955002 18.177977,23.305008 16.826995,23.654999 15.389983,23.830002 13.862975,23.830002L11.623993,23.830002 11.623993,32 3.4979857,32 3.4979857,16.419998 0,16.419998 0,13.165009 3.4979857,13.165009 3.4979857,10.555008 0,10.555008 0,7.2949982 3.4979857,7.2949982z" />
  </g>
</svg>