<?xml version="1.0" encoding="utf-8"?>
<svg xmlns="http://www.w3.org/2000/svg" height="256" width="256" viewBox="0 0 256 256">
  <g>
    <path id="path1" transform="rotate(0,128,128) translate(0,14.9919967651367) scale(8,8)  " fill="#000000" d="M0.085998535,19.362997L7.9559937,19.362997 7.9559937,22.120991 0.085998535,22.120991z M0,5.758023L7.8699951,5.758023 7.8699951,8.5160172 0,8.5160172z M20.052002,5.186002C21.265991,5.1710179,21.957001,6.0960052,21.957001,6.0960052L21.54599,9.7920182C21.032013,10.305994 19.48999,10.305994 19.492004,10.305994 17.748993,13.541009 21.47699,18.110007 21.47699,18.110007 22.636017,18.418997 23.959991,17.700003 23.959991,17.700003L26.373016,20.523001C26.136993,21.408009 25.727997,21.908009 25.312988,22.190998 24.644989,22.642018 23.959991,22.525013 23.959991,22.525013 18.619995,20.780997 17.131012,15.132012 17.131012,15.132012 15.282013,8.3550065 18.67099,5.5819976 18.67099,5.5819976 19.186005,5.3000157 19.64801,5.1899998 20.052002,5.186002z M11.011993,1.6130056L11.011993,26.637987 31.192993,26.637987 31.192993,1.6130056z M4.5540161,0L32,0 32,28.252001 4.5540161,28.252001 4.5540161,23.409016 9.3970032,23.409016 9.3970032,17.758993 4.5540161,17.758993 4.5540161,9.6860001 9.3970032,9.6860001 9.3970032,4.843015 4.5540161,4.843015z" />
  </g>
</svg>

