<?xml version="1.0" encoding="utf-8"?>
<svg xmlns="http://www.w3.org/2000/svg" height="256" width="256" viewBox="0 0 256 256">
  <g>
    <path id="path1" transform="rotate(0,128,128) translate(48.625,1) scale(7.9375,7.9375)  " fill="#000000" d="M10.100006,21.399994L10.100006,28.099991 13.600006,28.099991 13.600006,21.399994z M6.3000183,21.399994L6.3000183,28.099991 9.7000122,28.099991 9.7000122,21.399994z M2.5,21.399994L2.5,26.799988 3.7000122,28.099991 6,28.099991 6,21.399994z M2.5,17.799988L2.5,21.099991 13.899994,21.099991 13.899994,22.099991 13.899994,28.099991 16.100006,28.099991 17.300018,26.699997 17.300018,21.099991 17.300018,19.099991 17.300018,17.799988z M13.899994,10.699997L13.899994,17.399994 17.300018,17.399994 17.300018,12 16.100006,10.699997z M10.100006,10.699997L10.100006,17.399994 13.600006,17.399994 13.600006,10.699997z M6.3000183,10.699997L6.3000183,17.399994 9.7000122,17.399994 9.7000122,10.699997z M3.8000183,10.699997L2.5,12 2.5,17.399994 6,17.399994 6,10.699997z M0,0L13,0 20,6.3999939 20,32 0,32z" />
  </g>
</svg>

