<?xml version="1.0" encoding="utf-8"?>
<svg xmlns="http://www.w3.org/2000/svg" height="256" width="256" viewBox="0 0 256 256">
  <g>
    <path id="path1" transform="rotate(0,128,128) translate(1.4210854715202E-14,0.259910772053502) scale(8.00000715530815,8.00000715530815)  " fill="#50B330" d="M14.685036,27.524099C15.88602,27.524099 16.886017,28.52511 16.886017,29.726102 16.886017,30.927095 15.88602,31.928104 14.685036,31.928104 13.484052,31.928104 12.483079,30.927095 12.483079,29.726102 12.383043,28.52511 13.383039,27.524099 14.685036,27.524099z M7.1780457,27.524099C8.3790907,27.524099 9.3800635,28.52511 9.3800635,29.726102 9.3800635,30.927095 8.3790907,31.928104 7.1780457,31.928104 5.9770612,32.028112 4.9760885,31.027101 4.9760885,29.726102 4.9760885,28.52511 5.9770612,27.524099 7.1780457,27.524099z M14.885047,17.515068L14.885047,19.717069 16.886017,19.717069 16.987029,19.717069 17.687039,17.515068z M9.8800616,17.515068L9.8800616,19.717069 13.183028,19.717069 13.183028,17.515068z M5.9770612,17.515068L6.978095,19.717069 8.1790795,19.717069 8.1790795,17.515068z M14.885047,13.812053L14.885047,15.914049 18.28805,15.914049 18.988058,13.812053z M9.8800616,13.812053L9.8800616,15.914049 13.183028,15.914049 13.183028,13.812053z M4.2751025,13.812053L5.2760753,15.914049 8.2790541,15.914049 8.2790541,13.812053z M14.885047,10.009033L14.885047,12.211066 19.388997,12.211066 19.989031,10.309052C19.989031,10.209045,20.089007,10.009033,20.089007,10.009033z M9.8800616,10.009033L9.8800616,12.211066 13.183028,12.211066 13.183028,10.009033z M2.5741202,10.009033C2.5741202,10.109039,2.5741202,10.209045,2.6740951,10.309052L3.575093,12.211066 8.2790541,12.211066 8.2790541,10.009033z M26.494988,0L30.798989,0C31.498997,-2.5859663E-08 31.999972,0.60101496 31.999972,1.201023 31.999972,1.9020137 31.498997,2.4020153 30.798989,2.4020155L26.494988,2.4020155C25.494015,2.4020153 25.194029,2.6020279 24.794007,3.9030264 24.393006,5.305039 18.988058,23.621072 18.988058,23.621072L18.988058,23.721078C18.888022,23.821085,17.587063,27.124105,14.084025,27.124105L4.2751025,27.124105C3.575093,27.124105 3.0741183,26.52309 3.0741183,25.923082 3.0741183,25.222091 3.6750681,24.722089 4.2751025,24.722089L13.98405,24.722089C15.585057,24.722089 16.386019,23.221077 16.586029,22.920082 16.586029,22.820076 16.686066,22.620094 16.786042,22.220068L6.7780837,22.220068C5.4760865,22.220068,4.8760523,21.119081,4.7760772,20.71808L0.37210237,11.210055C-0.4289201,9.6080299,-0.027920642,7.4070349,2.4740841,7.4070349L20.490006,7.4070349C20.690018,7.4070349,20.890028,7.4070349,21.090041,7.5070415L21.190016,7.5070415 21.190016,7.4070349C21.791027,5.2050324 22.291026,3.6030381 22.390999,3.2030125 22.792,1.7020314 23.692997,-2.5859663E-08 26.494988,0z" />
  </g>
</svg>

