<?xml version="1.0" encoding="utf-8"?>
<svg xmlns="http://www.w3.org/2000/svg" height="256" width="256" viewBox="0 0 256 256">
  <g>
    <path id="path1" transform="rotate(0,128,128) translate(29.8679809272289,0) scale(8,8)  " fill="#838383" d="M5.4268619,28.606003L16.087075,28.606003 16.087075,32 5.4268619,32z M16.914678,14.74671C17.535752,14.767948,18.122934,15.127997,18.405124,15.727997L20.635171,20.473999C20.961175,21.167007,20.780172,21.970001,20.242166,22.460999L20.143157,22.542999 16.254079,26.634995 16.232082,26.682007C16.001075,27.162994,15.509068,27.494995,14.940056,27.494995L6.7658898,27.494995C5.9738699,27.494995,5.3318588,26.852997,5.3318588,26.061005L5.3318588,21.033005 9.2209379,24.923004C9.7099458,25.410995 10.357962,25.679001 11.047975,25.679001 11.737988,25.679001 12.387003,25.410995 12.875012,24.923004L16.374084,21.423996 16.374084,22.393997 17.298106,21.544998 15.260062,17.207001C14.857054,16.352005,15.225058,15.335007,16.080079,14.932999L16.131082,14.908005C16.344085,14.807999 16.568088,14.755997 16.790092,14.747009 16.831718,14.745384 16.873273,14.745295 16.914678,14.74671z M12.005994,13.063004L10.419964,14.649002C11.042974,15.074005 11.547985,15.093002 11.934994,14.706009 12.258998,14.382004 12.283,13.835007 12.005994,13.063004z M13.407024,9.423996C13.137018,9.4219971 12.906015,9.5180054 12.71301,9.7100067 12.510006,9.9140015 12.400004,10.134995 12.382002,10.375 12.363,10.615005 12.429004,10.942001 12.578005,11.354004L14.22104,9.7100067C13.949035,9.5200043,13.67703,9.4250031,13.407024,9.423996z M15.725068,8.2070007L16.29308,8.776001 15.568068,9.5C16.199077,10.165009,16.570087,10.688995,16.67909,11.072998L15.797069,11.953995C15.681069,11.397995,15.352059,10.833008,14.811048,10.259003L12.912015,12.158005C13.310022,13.115005 13.502023,13.850998 13.488023,14.365005 13.474023,14.878006 13.301023,15.300995 12.969015,15.632996 12.565007,16.037003 12.071998,16.219009 11.488985,16.179001 10.904974,16.139008 10.298959,15.880005 9.6709482,15.399002L8.7759286,16.292007 8.2079164,15.723999 9.0679351,14.863007C8.3849222,14.179001,7.9459101,13.503998,7.7529093,12.839005L8.6719266,11.921005C8.7139274,12.255005 8.8469297,12.632004 9.0709335,13.053009 9.2939416,13.473999 9.5459453,13.824997 9.8259498,14.104996L11.658987,12.272003C11.230977,11.244995 11.035974,10.499008 11.074976,10.031998 11.112974,9.5650024 11.304979,9.1589966 11.650988,8.8130035 12.059997,8.4029999 12.577006,8.2130051 13.202018,8.2420044 13.826031,8.2710037 14.420041,8.5060043 14.983056,8.947998z M13.485025,0C13.852033,0,14.22004,0.13999939,14.501044,0.42100525L24.112241,10.031998C24.673257,10.593002,24.673257,11.501999,24.112241,12.063004L19.597148,16.578003 19.054139,15.423996C18.930135,15.158997,18.760133,14.923996,18.557126,14.725006L18.477122,14.652008 22.081201,11.048004 13.485025,2.451004 2.451799,13.484009 11.047975,22.081009 14.932053,18.197006 15.906072,20.268997 12.062995,24.111008C11.502986,24.671997,10.593967,24.671997,10.032954,24.111008L0.42075927,14.5C-0.14025309,13.938995,-0.14025309,13.029999,0.42075927,12.469009L12.470004,0.42100525C12.750009,0.13999939,13.118016,0,13.485025,0z" />
  </g>
</svg>

